<?xml version="1.0" encoding="utf-8"?>
<!-- Generator: Adobe Illustrator 24.1.2, SVG Export Plug-In . SVG Version: 6.00 Build 0)  -->
<svg version="1.1" id="Layer_1" xmlns="http://www.w3.org/2000/svg" xmlns:xlink="http://www.w3.org/1999/xlink" x="0px" y="0px"
	 viewBox="0 0 1920 1080" style="enable-background:new 0 0 1920 1080;" xml:space="preserve">
<style type="text/css">
	.st0{clip-path:url(#SVGID_2_);fill:none;stroke:#000000;stroke-linecap:round;stroke-miterlimit:10;}
</style>
<g>
	<defs>
		<rect id="SVGID_1_" width="1920" height="1080"/>
	</defs>
	<clipPath id="SVGID_2_">
		<use xlink:href="#SVGID_1_"  style="overflow:visible;"/>
	</clipPath>
	<path class="st0" d="M491.83,395.75c3.33,3.34,286.25,464.05,364.28,415.76C934.14,763.22,960.35,383.58,960,106
		S874.65-968.25,854-854"/>
	<path class="st0" d="M495.24,395.11c3.33,3.33,289.21,464.12,366.67,415.1C939.37,761.2,960.48,379.2,960,101
		c-0.49-278.2-81.32-1074.87-101-960"/>
	<path class="st0" d="M498.55,394.45c3.33,3.33,292.07,479.18,368.98,414.44S945.59,299.82,960,6s12.74-1090.48-6-960"/>
	<path class="st0" d="M501.72,393.78c3.33,3.33,294.82,470.25,371.2,413.78C949.3,751.1,954.65,340.43,960,55s-37.15-1082.09-55-960
		"/>
	<path class="st0" d="M504.79,393.1c3.34,3.34,297.49,461.46,373.36,413.11C954.01,757.86,963.52,380.2,960,103
		S873.98-970.87,857-857"/>
	<path class="st0" d="M507.79,392.42c3.33,3.34,300.09,469.16,375.46,412.43C958.61,748.11,955.87,337.47,960,52
		s-35.87-1082.14-52-960"/>
	<path class="st0" d="M510.74,391.74c3.33,3.33,302.64,477.03,377.51,411.74C963.13,738.19,948.04,293.91,960,0s15.29-1090.58,0-960
		"/>
	<path class="st0" d="M513.63,391.06c3.33,3.33,305.15,461.74,379.54,411.06C967.57,751.45,963.36,366.19,960,87
		s-72.53-1075.85-87-960"/>
	<path class="st0" d="M516.46,390.38c3.33,3.33,307.59,463.28,381.52,410.38C971.9,747.86,961.83,354.29,960,73
		s-59.33-1077.96-73-960"/>
	<path class="st0" d="M519.2,389.7c3.33,3.33,309.97,460.31,383.44,409.69C976.11,748.78,964.77,364.9,960,86s-73.11-1075.57-86-960
		"/>
	<path class="st0" d="M521.84,388.99c3.34,3.33,312.27,471.15,385.29,408.99C980.16,735.81,953.86,306.33,960,16s-3.86-1087-16-960"
		/>
	<path class="st0" d="M524.38,388.27c3.33,3.33,314.46,468.15,387.06,408.27C984.04,736.66,956.74,316.92,960,29
		s-17.57-1084.59-29-960"/>
	<path class="st0" d="M526.82,387.53c3.33,3.33,316.57,471.11,388.77,407.52C987.78,731.47,953.6,297.51,960,6s4.74-1088.18-6-960"
		/>
	<path class="st0" d="M529.17,386.78c3.33,3.34,318.62,455.08,390.42,406.78C991.4,745.27,969.43,373.09,960,97
		s-86.93-1072.76-97-960"/>
	<path class="st0" d="M531.48,386.02c3.33,3.34,320.61,465.53,392.03,406.03C994.93,732.54,958.75,316.17,960,29
		s-19.59-1083.84-29-960"/>
	<path class="st0" d="M533.74,385.27c3.33,3.34,322.58,457.66,393.62,405.28C998.4,738.17,966.39,350.92,960,71
		s-62.23-1076.59-71-960"/>
	<path class="st0" d="M535.96,384.52c3.33,3.33,324.49,461.61,395.17,404.52C1001.8,731.96,962.19,326.51,960,42
		s-33.85-1081.17-42-960"/>
	<path class="st0" d="M538.15,383.78c3.33,3.33,326.4,451.57,396.7,403.77C1005.16,739.76,971.98,372.09,960,97
		s-89.48-1071.76-97-960"/>
	<path class="st0" d="M540.3,383.03c3.33,3.33,328.26,466.53,398.21,403.03C1008.46,722.55,956.75,292.68,960,2s4.92-1087.34-2-960"
		/>
	<path class="st0" d="M542.4,382.29c3.33,3.33,330.08,451.33,399.68,402.29C1011.68,735.53,971.68,364.1,960,88
		s-81.68-1072.76-88-960"/>
	<path class="st0" d="M544.45,381.53c3.33,3.34,331.85,462.13,401.11,401.54S960.59,305.51,960,18s-12.26-1084.18-18-960"/>
	<path class="st0" d="M546.44,380.78c3.33,3.33,333.58,461.24,402.5,400.78C1017.87,721.1,961.16,305.26,960,18
		s-12.82-1083.93-18-960"/>
	<path class="st0" d="M548.41,380.03c3.33,3.34,334.62,446.21,403.89,400.03c69.26-46.17,26.92-403.55,11.7-677.06
		S866.28-970.51,861-861"/>
	<path class="st0" d="M550.35,379.29c3.33,3.33,336.97,450.84,405.24,399.29C1023.87,727.03,970.93,348.1,960,70
		s-65.93-1074.76-70-960"/>
	<path class="st0" d="M552.26,378.55c3.33,3.33,338.62,461.64,406.58,398.55c67.95-63.09,0.97-487.58,1.16-777.1s3.53-1086.18,0-960
		"/>
	<path class="st0" d="M554.13,377.81c3.34,3.34,340.25,449.79,407.9,397.82c67.64-51.97,9.31-431.36-2.03-709.63s-63-1074.94-66-960
		"/>
	<path class="st0" d="M555.99,377.08c3.34,3.34,341.86,449.27,409.2,397.09c67.33-52.18,6.34-431.81-5.19-710.17
		s-61.53-1075.03-64-960"/>
	<path class="st0" d="M557.83,376.36c3.34,3.34,343.46,458.1,410.49,396.37C1035.34,711,962.39,293.79,960,6s-4.05-1084.45-6-960"/>
	<path class="st0" d="M559.65,375.65c3.34,3.33,345.04,453.09,411.76,395.65c66.73-57.44-4.34-456.92-11.41-740.3
		s-29.57-1080.05-31-960"/>
	<path class="st0" d="M561.46,374.94c3.33,3.34,346.59,446.77,413.02,394.95C1040.9,718.06,973.08,341.65,960,64
		s-63.08-1074.31-64-960"/>
	<path class="st0" d="M563.24,374.24c3.34,3.34,348.15,441.29,414.27,394.25C1043.64,721.45,978.25,364.75,960,92
		s-91.59-1069.41-92-960"/>
	<path class="st0" d="M565.01,373.55c3.33,3.34,349.68,447.31,415.51,393.55c65.83-53.75-8.6-436.75-20.52-716.1
		s-51.09-1076.02-51-960"/>
	<path class="st0" d="M566.76,372.86c3.33,3.33,351.19,451.66,416.73,392.85C1049.03,706.9,967.25,304.29,960,20
		s-20.58-1080.95-20-960"/>
	<path class="st0" d="M568.49,372.16c3.34,3.33,352.7,448.35,417.95,392.16c65.25-56.2-16.2-447.77-26.44-729.32
		s-36.07-1078.22-35-960"/>
	<path class="st0" d="M570.21,371.46c3.33,3.33,354.18,452.53,419.14,391.45C1054.32,701.84,965.73,291.32,960,5
		s-6.56-1082.99-5-960"/>
	<path class="st0" d="M571.91,370.74c3.33,3.34,355.65,442.37,420.33,390.74C1056.92,709.86,975.54,337.75,960,61
		s-63.04-1073.41-61-960"/>
	<path class="st0" d="M573.59,370.03c3.33,3.34,357.11,435.38,421.51,390.04S982.18,368.34,960,98S859.48-969.01,862-862"/>
	<path class="st0" d="M575.25,369.31c3.33,3.34,358.55,447.37,422.68,389.32C1062.05,700.58,969.82,303.94,960,21
		s-23.99-1079.6-21-960"/>
	<path class="st0" d="M576.9,368.59c3.33,3.33,359.98,449.86,423.83,388.59C1064.58,695.92,966.95,287.03,960,1s-4.45-1082.7-1-960"
		/>
	<path class="st0" d="M578.54,367.86c3.33,3.33,361.4,437.16,424.98,387.85C1067.1,706.4,979.25,345.95,960,72
		s-75.92-1070.62-72-960"/>
	<path class="st0" d="M580.17,367.12c3.33,3.33,362.81,431.8,426.12,387.11C1069.59,709.55,984.21,368.21,960,99
		S856.62-966.87,861-861"/>
	<path class="st0" d="M581.78,366.37c3.33,3.33,364.21,438.25,427.24,386.36C1072.06,700.84,977.34,331.29,960,55
		s-59.84-1072.96-55-960"/>
	<path class="st0" d="M583.37,365.6c3.34,3.33,365.59,445.87,428.36,385.6C1074.5,690.94,969.29,288.53,960,4s-9.29-1081.2-4-960"/>
	<path class="st0" d="M584.95,364.83c3.33,3.33,366.96,430.29,429.47,384.82C1076.92,704.18,984.4,361.61,960,92
		s-97.74-1066.28-92-960"/>
	<path class="st0" d="M586.51,364.05c3.34,3.33,368.31,441.55,430.56,384.04C1079.32,690.59,972.68,300.52,960,19
		s-25.18-1078.18-19-960"/>
	<path class="st0" d="M588.06,363.27c3.33,3.33,369.65,442.97,431.64,383.26C1081.69,686.82,970.78,288.59,960,5
		s-11.62-1080.26-5-960"/>
	<path class="st0" d="M589.6,362.48c3.34,3.34,370.99,431.9,432.72,382.49C1084.06,695.55,981.39,339.16,960,66
		s-73.05-1069.83-66-960"/>
	<path class="st0" d="M591.13,361.7c3.33,3.33,372.31,434.48,433.79,381.7c61.48-52.78-46.6-422-64.92-698.4s-52.49-1073.07-45-960"
		/>
	<path class="st0" d="M592.64,360.9c3.33,3.34,373.62,439.89,434.85,380.9C1088.72,682.82,972.42,289.47,960,7s-14.92-1079.13-7-960
		"/>
	<path class="st0" d="M594.15,360.1c3.33,3.34,374.93,426.79,435.91,380.11C1091.03,693.52,985.01,350.03,960,80
		s-88.34-1066.7-80-960"/>
	<path class="st0" d="M595.64,359.29c3.34,3.34,376.23,426.34,436.96,379.29C1093.32,691.54,984.93,347.26,960,77
		s-85.77-1066.93-77-960"/>
	<path class="st0" d="M597.13,358.47c3.34,3.33,377.52,422.55,438,378.47S988.19,361.16,960,94S856.81-969.82,866-866"/>
	<path class="st0" d="M598.62,357.63c3.34,3.34,378.81,427.41,439.04,377.64C1097.89,685.5,982.78,331.71,960,59
		s-68.61-1069.38-59-960"/>
	<path class="st0" d="M600.11,356.8c3.33,3.33,380.09,435.1,440.07,376.8C1100.16,675.3,974.53,288.1,960,7s-17.03-1077.77-7-960"/>
	<path class="st0" d="M601.59,355.95c3.33,3.33,381.37,424.28,441.11,375.95c59.73-48.32-57.92-394.92-82.7-665.9
		s-76.45-1067.65-66-960"/>
	<path class="st0" d="M603.07,355.1c3.33,3.33,382.65,422.62,442.14,375.1C1104.7,682.68,985.87,340.03,960,70s-80.87-1066.7-70-960
		"/>
	<path class="st0" d="M604.53,354.25c3.33,3.33,383.93,416.96,443.17,374.25c59.25-42.71-56.75-365.42-87.7-630.5
		S850.72-963.75,862-862"/>
	<path class="st0" d="M605.99,353.39c3.33,3.33,385.19,415.12,444.19,373.38C1109.19,685.04,992.2,366.96,960,103
		S845.3-957.63,857-857"/>
	<path class="st0" d="M607.45,352.51c3.33,3.34,386.45,424.6,445.21,372.52C1111.42,672.94,982.11,314.17,960,40
		s-52.11-1070.84-40-960"/>
	<path class="st0" d="M608.89,351.63c3.33,3.33,387.71,428.56,446.23,371.63C1113.63,666.32,977.52,288.88,960,10
		s-22.52-1075.54-10-960"/>
	<path class="st0" d="M610.34,350.73c3.34,3.34,388.97,427.52,447.24,370.73C1115.86,664.68,977.93,288.58,960,10
		s-22.93-1075.24-10-960"/>
	<path class="st0" d="M611.79,349.83c3.34,3.34,390.22,418.65,448.26,369.84C1118.08,670.86,986.17,327.44,960,57
		s-70.34-1067.11-57-960"/>
	<path class="st0" d="M613.25,348.93c3.33,3.33,391.49,418.24,449.28,368.92C1120.32,668.53,985.92,323.81,960,53
		s-66.75-1067.48-53-960"/>
	<path class="st0" d="M614.71,348.01c3.33,3.33,392.74,417.17,450.29,368C1122.55,666.85,986.33,323.5,960,53s-67.17-1067.17-53-960
		"/>
	<path class="st0" d="M616.16,347.09c3.33,3.33,394.01,413.6,451.31,367.08C1124.78,667.66,989.25,335.7,960,68
		s-82.58-1064.36-68-960"/>
	<path class="st0" d="M617.61,346.16c3.33,3.33,395.26,407.18,452.33,366.15C1127,671.29,994.99,362.05,960,100
		S845.01-958.72,860-860"/>
	<path class="st0" d="M619.06,345.22c3.33,3.34,396.51,414.93,453.34,365.23C1129.22,660.75,986.57,317.57,960,47
		s-62.4-1067.24-47-960"/>
	<path class="st0" d="M620.49,344.29c3.33,3.34,397.76,419.84,454.34,364.29C1131.42,653.04,980.97,287.26,960,11
		s-26.81-1072.93-11-960"/>
	<path class="st0" d="M621.92,343.36c3.33,3.33,399,411.59,455.35,363.36C1133.61,658.49,988.54,322.79,960,54
		s-70.21-1065.45-54-960"/>
	<path class="st0" d="M623.35,342.42c3.33,3.33,400.23,403.15,456.34,362.41C1135.8,664.1,996.28,359.14,960,98
		S845.38-959.81,862-862"/>
	<path class="st0" d="M624.77,341.47c3.34,3.34,401.48,418.39,457.35,361.47C1137.99,646.03,980.35,277.16,960,0
		s-17.02-1073.82,0-960"/>
	<path class="st0" d="M626.2,340.53c3.33,3.33,399.53,407.45,458.34,360.52C1143.34,654.13,1006.42,329.18,979,59
		s-73.26-1082.68-59-979"/>
	<path class="st0" d="M627.62,339.58c3.33,3.34,403.93,403.01,459.33,359.58C1142.35,655.73,994.32,342.36,960,79
		s-96.82-1060.03-79-960"/>
	<path class="st0" d="M629.04,338.64c3.33,3.33,405.16,408.74,460.32,358.63C1144.52,647.17,987.89,307.88,960,38
		s-56.23-1066.55-38-960"/>
	<path class="st0" d="M630.44,337.68c3.33,3.33,406.38,398.46,461.31,357.68C1146.67,654.58,997.46,353.39,960,93
		S848.38-964.06,867-867"/>
	<path class="st0" d="M631.84,336.72c3.33,3.34,407.6,409.35,462.29,356.73C1148.82,640.83,985.85,293.07,960,21
		s-40.02-1068.74-21-960"/>
	<path class="st0" d="M633.25,335.75c3.34,3.33,408.82,400.53,463.28,355.74C1150.99,646.7,993.92,331.08,960,67
		s-86.42-1060.75-67-960"/>
	<path class="st0" d="M634.66,334.77c3.33,3.33,410.04,402.06,464.26,354.77C1153.15,642.24,991.65,317.42,960,51
		s-70.82-1063.09-51-960"/>
	<path class="st0" d="M636.07,333.78c3.33,3.33,411.25,394.24,465.24,353.78C1155.3,647.1,998.72,350.43,960,91
		S848.78-965.09,869-869"/>
	<path class="st0" d="M637.47,332.79c3.33,3.34,412.48,395.76,466.23,352.8C1157.46,642.62,996.45,336.76,960,75
		s-95.62-1058.43-75-960"/>
	<path class="st0" d="M638.87,331.79c3.34,3.34,413.69,393.77,467.21,351.8C1159.6,641.62,997.68,340.6,960,80
		S858.99-977.26,880-880"/>
	<path class="st0" d="M640.26,330.81c3.33,3.33,414.89,399.77,468.18,350.8C1161.73,632.65,990.91,304.44,960,37
		s-58.41-1064.1-37-960"/>
	<path class="st0" d="M641.65,329.82c3.33,3.33,416.09,398.29,469.15,349.82C1163.86,631.17,991.63,305.77,960,39
		s-60.8-1063.44-39-960"/>
	<path class="st0" d="M643.02,328.84c3.33,3.33,417.28,398.15,470.11,348.84S991.02,300.45,960,33s-55.19-1064.11-33-960"/>
	<path class="st0" d="M644.39,327.86c3.33,3.34,418.47,401.17,471.07,347.86C1168.06,622.41,987.24,279.29,960,8
		s-30.58-1067.95-8-960"/>
	<path class="st0" d="M645.74,326.89c3.34,3.34,419.65,400.71,472.02,346.9C1170.14,619.97,986.96,275.63,960,4s-26.96-1068.3-4-960
		"/>
	<path class="st0" d="M647.09,325.92c3.33,3.34,420.8,383.25,472.96,345.93C1172.2,634.53,1003.67,356.97,960,102
		S834.66-949.64,858-858"/>
	<path class="st0" d="M648.43,324.97c3.33,3.33,421.97,397.29,473.9,344.96C1174.26,617.6,988.89,280.82,960,11
		s-34.72-1066.49-11-960"/>
	<path class="st0" d="M649.77,324c3.33,3.33,423.13,385.16,474.83,343.99C1176.31,626.83,1000.27,335.5,960,77S858.9-978.17,883-883
		"/>
	<path class="st0" d="M651.09,323.03c3.34,3.33,424.28,394.03,475.77,343.02C1178.34,615.05,990.64,285.18,960,17
		s-41.48-1064.84-17-960"/>
	<path class="st0" d="M652.42,322.07c3.33,3.33,425.42,390.57,476.69,342.06C1180.37,615.62,993.35,296.52,960,31
		s-55.85-1062.19-31-960"/>
	<path class="st0" d="M653.73,321.1c3.33,3.34,426.56,377.96,477.61,341.11C1182.38,625.36,1005.22,353.7,960,100
		S834.78-950.37,860-860"/>
	<path class="st0" d="M655.03,320.14c3.33,3.34,427.68,382.34,478.51,340.15C1184.37,618.1,1000.09,325.88,960,67
		s-92.59-1055.55-67-960"/>
	<path class="st0" d="M656.32,319.18c3.34,3.34,428.82,389.55,479.43,339.18C1186.36,608,992.12,283.89,960,17
		s-42.96-1063.56-17-960"/>
	<path class="st0" d="M657.62,318.23c3.33,3.33,429.93,385.77,480.33,338.23C1188.35,608.92,995.16,296.91,960,33
		s-59.33-1060.58-33-960"/>
	<path class="st0" d="M658.9,317.28c3.33,3.33,431.05,385.49,481.23,337.28C1190.31,606.34,994.69,292.43,960,28
		s-54.69-1061.09-28-960"/>
	<path class="st0" d="M660.17,316.34c3.33,3.33,432.15,371.72,482.12,336.33C1192.26,617.28,1007.72,355.45,960,104
		S828.95-944.11,856-856"/>
	<path class="st0" d="M661.44,315.39c3.33,3.34,433.25,375.13,483.01,335.39C1194.21,611.05,1003.57,332.63,960,77
		S855.59-975.3,883-883"/>
	<path class="st0" d="M662.7,314.45c3.33,3.33,434.33,384.69,483.88,334.45C1196.13,598.65,993.26,278.98,960,13
		s-40.76-1062.65-13-960"/>
	<path class="st0" d="M663.95,313.5c3.33,3.34,435.43,367.92,484.77,333.51C1198.06,612.59,1009.29,357,960,107
		S824.88-939.67,853-853"/>
	<path class="st0" d="M665.19,312.57c3.34,3.33,436.51,380.5,485.64,332.57C1199.96,597.21,995.97,288.36,960,25
		s-53.47-1060.02-25-960"/>
	<path class="st0" d="M666.44,311.63c3.33,3.34,437.57,374.24,486.5,331.64C1201.87,600.66,1001.49,313.88,960,56
		s-84.82-1054.54-56-960"/>
	<path class="st0" d="M667.68,310.7c3.33,3.33,438.65,381.48,487.37,330.69C1203.77,590.61,993.51,271.9,960,6s-35.18-1062.57-6-960
		"/>
	<path class="st0" d="M668.91,309.76c3.33,3.33,439.72,370.89,488.23,329.76C1205.66,598.39,1003.36,319.09,960,63
		s-92.52-1052.75-63-960"/>
	<path class="st0" d="M670.14,308.82c3.33,3.34,440.78,372.29,489.09,328.82C1207.54,594.17,1001.2,306.27,960,48
		c-41.21-258.27-77.87-1054.94-48-960"/>
	<path class="st0" d="M671.36,307.88c3.34,3.34,441.85,378.7,489.96,327.89C1209.42,584.95,994.05,268.46,960,3
		s-33.22-1062.13-3-960"/>
	<path class="st0" d="M672.6,306.94c3.34,3.34,442.93,368.11,490.82,326.95C1211.32,592.73,1003.9,315.65,960,60
		s-90.57-1052.31-60-960"/>
	<path class="st0" d="M673.84,306c3.33,3.33,444,372.49,491.69,325.99C1213.22,585.49,998.76,287.83,960,27s-57.92-1057.5-27-960"/>
	<path class="st0" d="M675.07,305.05c3.33,3.33,445.06,370.72,492.55,325.04C1215.1,584.42,999.77,290.85,960,31
		s-62.27-1056.52-31-960"/>
	<path class="st0" d="M676.31,304.09c3.33,3.33,446.13,362.26,493.41,324.08C1217,589.99,1007.45,327.2,960,75
		S853.38-973.86,885-885"/>
	<path class="st0" d="M677.53,303.12c3.33,3.34,447.19,363.82,494.27,323.13C1218.88,585.56,1005.13,313.54,960,59
		s-90.97-1051.21-59-960"/>
	<path class="st0" d="M678.76,302.16c3.33,3.34,448.25,355.86,495.12,322.17C1220.76,590.63,1012.31,347.39,960,100
		S827.69-944.05,860-860"/>
	<path class="st0" d="M679.98,301.2c3.33,3.33,449.31,369.9,495.98,321.2C1222.64,573.7,997.49,271.23,960,9s-41.66-1058.9-9-960"/>
	<path class="st0" d="M681.19,300.24c3.33,3.33,450.37,369.45,496.84,320.24C1224.49,571.27,997.17,267.58,960,5s-38-1059.25-5-960"
		/>
	<path class="st0" d="M682.4,299.29c3.34,3.33,451.42,361,497.68,319.28C1226.35,576.86,1004.85,303.93,960,49s-82.35-1051.6-49-960
		"/>
	<path class="st0" d="M683.6,298.33c3.34,3.34,452.46,362.23,498.52,318.34C1228.19,572.78,1002.85,291.94,960,35
		s-68.69-1053.61-35-960"/>
	<path class="st0" d="M684.8,297.38c3.34,3.33,453.5,354.78,499.36,317.38C1230.03,577.36,1009.53,323.29,960,73
		S852.97-973.96,887-887"/>
	<path class="st0" d="M686,296.43c3.33,3.33,454.53,357.16,500.2,316.42C1231.87,572.12,1006.37,305.48,960,52
		s-86.37-1050.14-52-960"/>
	<path class="st0" d="M687.21,295.46c3.33,3.34,455.58,361.38,501.05,315.47C1233.72,565.01,1001.38,278.49,960,20
		s-54.71-1055.15-20-960"/>
	<path class="st0" d="M688.43,294.49c3.34,3.33,456.65,358.73,501.91,314.49C1235.6,564.73,1003.22,285.66,960,29
		s-64.06-1053.33-29-960"/>
	<path class="st0" d="M689.65,293.51c3.34,3.34,457.71,347.27,502.76,313.52C1237.47,573.27,1013.9,337,960,91S833.6-951.67,869-869
		"/>
	<path class="st0" d="M690.86,292.53c3.34,3.33,458.09,356.28,503.61,312.53C1239.99,561.3,1007.41,286.51,964,30
		s-65.08-1056.51-30-964"/>
	<path class="st0" d="M692.09,291.53c3.33,3.34,459.8,353.62,504.45,311.54C1241.2,560.98,1005.92,293.01,960,39
		s-75.09-1050.68-39-960"/>
	<path class="st0" d="M693.31,290.53c3.33,3.33,460.86,346.61,505.31,310.52C1243.07,564.97,1012.1,321.84,960,74
		S849.56-970.51,886-886"/>
	<path class="st0" d="M694.53,289.52c3.33,3.34,461.92,351.61,506.16,309.52C1244.94,556.96,1006.28,290.67,960,37
		s-73.78-1050.34-37-960"/>
	<path class="st0" d="M695.74,288.51c3.34,3.33,462.98,340.42,507.03,308.5C1246.81,565.1,1016.63,340.34,960,97S825.87-943,863-863
		"/>
	<path class="st0" d="M696.96,287.49c3.34,3.34,464.04,342.58,507.88,307.49C1248.68,559.9,1013.64,323.33,960,77
		S845.53-966,883-883"/>
	<path class="st0" d="M698.19,286.48c3.34,3.33,465.11,354.05,508.74,306.47S1001.32,259.66,960,1s-38.82-1055.33-1-960"/>
	<path class="st0" d="M699.41,285.46c3.34,3.34,466.16,340.37,509.59,305.46c43.43-34.91-194.83-269.1-249-514.92
		S845.83-966.49,884-884"/>
	<path class="st0" d="M700.63,284.45c3.33,3.33,467.21,345.52,510.44,304.44C1254.3,547.82,1008.18,289.82,960,38
		s-76.51-1048.48-38-960"/>
	<path class="st0" d="M701.85,283.43c3.33,3.34,468.26,349.67,511.29,303.44C1256.17,540.63,1003.19,262.81,960,6
		s-44.86-1053.48-6-960"/>
	<path class="st0" d="M703.08,282.42c3.33,3.33,469.33,334.65,512.15,302.42C1258.05,552.6,1017.37,331.64,960,89
		S831.8-950.31,871-871"/>
	<path class="st0" d="M704.3,281.4c3.34,3.34,470.4,334.81,513.02,301.41C1259.93,549.41,1016.39,324.63,960,81
		S839.45-959.3,879-879"/>
	<path class="st0" d="M705.53,280.39c3.33,3.33,471.46,335.29,513.87,300.39C1261.81,545.88,1015.07,315.96,960,71
		S849.1-970.63,889-889"/>
	<path class="st0" d="M706.76,279.38c3.33,3.33,472.52,329.6,514.73,299.37S1019.91,338.13,960,98S821.75-938.79,862-862"/>
	<path class="st0" d="M707.98,278.36c3.34,3.34,473.59,331.43,515.59,298.37C1265.58,543.67,1017.26,322.79,960,80
		S839.4-959.45,880-880"/>
	<path class="st0" d="M709.2,277.36c3.33,3.33,474.64,340.75,516.44,297.36C1267.44,531.33,1007.11,269.95,960,17
		s-57.94-1049.62-17-960"/>
	<path class="st0" d="M710.42,276.36c3.34,3.33,475.71,330.41,517.3,296.35C1269.32,538.65,1016.62,315.45,960,72
		S846.71-968.12,888-888"/>
	<path class="st0" d="M711.65,275.35c3.33,3.34,476.76,331.58,518.15,295.35C1271.2,534.48,1014.63,303.45,960,58
		s-99.63-1042.12-58-960"/>
	<path class="st0" d="M712.87,274.35c3.34,3.33,477.83,339.91,519.02,294.35C1273.07,523.14,1005.48,255.62,960,1
		s-42.98-1051.28-1-960"/>
	<path class="st0" d="M714.1,273.35c3.33,3.34,478.88,334.42,519.87,293.36C1274.95,525.65,1010.16,276.95,960,27
		s-69.33-1046.62-27-960"/>
	<path class="st0" d="M715.33,272.36c3.34,3.33,479.96,330.92,520.74,292.36C1276.85,526.16,1012.84,288.29,960,41
		s-83.68-1043.95-41-960"/>
	<path class="st0" d="M716.57,271.37c3.33,3.33,481.03,325.43,521.6,291.37C1278.74,528.67,1017.53,309.62,960,67
		S849.97-972.29,893-893"/>
	<path class="st0" d="M717.82,270.36c3.33,3.34,482.1,325.1,522.47,290.37C1280.65,526,1017.05,305.12,960,62S854.62-977.79,898-898
		"/>
	<path class="st0" d="M719.07,269.36c3.34,3.33,483.2,316.42,523.35,289.36C1282.58,531.66,1024.9,342.29,960,107
		S809.26-924.95,853-853"/>
	<path class="st0" d="M720.34,268.36c3.33,3.33,484.3,316.58,524.24,288.35C1284.52,528.49,1023.93,335.29,960,99
		S816.9-933.95,861-861"/>
	<path class="st0" d="M721.62,267.35c3.33,3.34,485.4,329.58,525.13,287.36C1286.48,512.48,1010.13,264.12,960,14
		s-58.46-1046.78-14-960"/>
	<path class="st0" d="M722.91,266.35c3.33,3.33,486.52,325.41,526.04,286.35C1288.46,513.64,1013.49,278.78,960,32
		s-76.82-1043.45-32-960"/>
	<path class="st0" d="M724.21,265.35c3.33,3.33,487.65,326.23,526.95,285.34C1290.45,509.8,1011.86,268.45,960,20
		s-65.19-1045.12-20-960"/>
	<path class="st0" d="M725.53,264.34c3.34,3.34,488.8,324.07,527.87,284.35C1292.48,508.96,1013.23,273.11,960,26
		s-71.57-1043.78-26-960"/>
	<path class="st0" d="M726.85,263.35c3.34,3.33,489.94,313.24,528.8,283.35C1294.51,516.81,1023.28,321.12,960,84
		S830.06-949.78,876-876"/>
	<path class="st0" d="M728.17,262.37c3.34,3.33,491.09,316.42,529.72,282.36C1296.53,510.67,1019.32,299.12,960,58
		S855.68-979.79,902-902"/>
	<path class="st0" d="M729.5,261.38c3.34,3.34,492.24,316.78,530.66,281.38C1298.57,507.37,1018.19,291.29,960,49
		s-95.69-1038.96-49-960"/>
	<path class="st0" d="M730.83,260.4c3.33,3.33,493.39,323.3,531.58,280.4C1300.61,497.9,1010.9,252.63,960,3s-50.07-1046.3-3-960"/>
	<path class="st0" d="M732.17,259.42c3.33,3.34,494.55,319.67,532.52,279.43C1302.66,498.61,1013.78,264.81,960,18
		s-65.45-1043.47-18-960"/>
	<path class="st0" d="M733.51,258.45c3.33,3.33,495.7,318.36,533.45,278.45C1304.71,496.99,1014.33,265.32,960,19
		s-66.83-1042.98-19-960"/>
	<path class="st0" d="M734.84,257.49c3.34,3.33,496.87,309.06,534.39,277.48C1306.76,503.39,1022.87,305.83,960,68
		S843.79-966.5,892-892"/>
	<path class="st0" d="M736.19,256.53c3.33,3.33,498.03,308.79,535.33,276.53C1308.82,500.81,1022.42,301.34,960,63
		S848.41-972.01,897-897"/>
	<path class="st0" d="M737.56,255.59c3.33,3.33,499.21,316.18,536.29,275.58C1310.92,490.57,1014.31,258.53,960,12
		s-60.97-1043.2-12-960"/>
	<path class="st0" d="M738.95,254.64c3.33,3.33,500.41,313.91,537.26,274.64C1313.05,490.01,1015.87,264.05,960,19
		s-68.37-1041.71-19-960"/>
	<path class="st0" d="M740.36,253.7c3.33,3.34,501.64,309.16,538.24,273.71C1315.21,491.96,1019.93,282.07,960,41
		s-90.77-1037.73-41-960"/>
	<path class="st0" d="M741.81,252.77c3.33,3.33,502.9,314.89,539.27,272.76C1317.44,483.4,1013.51,247.59,960,0
		s-50.18-1044.26,0-960"/>
	<path class="st0" d="M743.29,251.84c3.33,3.33,504.18,307.14,540.3,271.84C1319.71,488.37,1020.6,280.61,960,40
		s-90.6-1037.28-40-960"/>
	<path class="st0" d="M744.8,250.92c3.33,3.33,505.48,305.74,541.35,270.92C1322.02,487.02,1021.36,281.97,960,42
		s-93.03-1036.64-42-960"/>
	<path class="st0" d="M746.35,250.01c3.33,3.33,506.83,307.18,542.44,270.01C1324.4,482.85,1019.3,269.17,960,27
		s-78.47-1038.84-27-960"/>
	<path class="st0" d="M747.94,249.12c3.34,3.33,508.22,301.81,543.56,269.12C1326.85,485.55,1024.08,290.54,960,53
		S855.08-981.21,907-907"/>
	<path class="st0" d="M749.58,248.24c3.33,3.33,509.64,296.28,544.71,268.24C1329.36,488.44,1029.05,312.75,960,80
		S827.62-949.41,880-880"/>
	<path class="st0" d="M751.26,247.37c3.33,3.33,511.09,304.43,545.88,267.36C1331.93,477.67,1020.36,266.62,960,25
		s-77.86-1038.29-25-960"/>
	<path class="st0" d="M753,246.51c3.33,3.34,512.59,303.1,547.09,266.52C1334.59,476.44,1021.18,268,960,27s-80.35-1037.67-27-960"
		/>
	<path class="st0" d="M754.77,245.67c3.34,3.33,514.14,297.28,548.34,265.67C1337.32,479.73,1026.52,291.89,960,56
		S850.15-976.56,904-904"/>
	<path class="st0" d="M756.59,244.84c3.33,3.34,515.71,302.82,549.61,264.84C1340.1,471.71,1020.53,259.11,960,17
		s-71.37-1038.78-17-960"/>
	<path class="st0" d="M758.43,244.02c3.34,3.34,517.31,296.86,550.91,264.03C1342.93,475.21,1026.06,283.84,960,47
		S858.11-986.51,913-913"/>
	<path class="st0" d="M760.31,243.22c3.33,3.34,517.93,290.1,552.22,263.23C1346.81,479.58,1037.42,313.74,966,82
		S829.58-951.41,884-884"/>
	<path class="st0" d="M762.21,242.44c3.34,3.33,520.59,293.18,553.55,262.44C1348.73,474.14,1028.96,292.48,960,58
		S846.04-973.15,902-902"/>
	<path class="st0" d="M764.14,241.68c3.34,3.33,522.26,296.12,554.9,261.67C1351.69,468.91,1025.67,273.06,960,35
		s-91.51-1034.73-35-960"/>
	<path class="st0" d="M766.09,240.93c3.33,3.33,523.94,288.75,556.26,260.93C1354.67,474.04,1032.73,305.31,960,74
		S828.94-953.98,886-886"/>
	<path class="st0" d="M768.06,240.2c3.34,3.33,525.66,296.4,557.65,260.2C1357.7,464.2,1024.78,262.57,960,23s-80.62-1036.23-23-960
		"/>
	<path class="st0" d="M770.04,239.49c3.34,3.33,527.37,291.4,559.03,259.49C1360.73,467.06,1029.51,283.16,960,48
		S853.82-983.83,912-912"/>
	<path class="st0" d="M772.04,238.8c3.33,3.34,528.09,296.61,560.42,258.81C1364.79,459.81,1029.08,253.93,966,12
		s-69.74-1043.6-12-966"/>
	<path class="st0" d="M774.03,238.14c3.34,3.33,530.83,295.99,561.83,258.13C1366.85,458.42,1024.48,251.88,960,11
		s-70.31-1037.55-11-960"/>
	<path class="st0" d="M776.02,237.48c3.34,3.34,532.56,294.57,563.22,257.49C1369.9,457.89,1025.71,254.99,960,15
		s-74.87-1036.66-15-960"/>
	<path class="st0" d="M777.99,236.84c3.33,3.33,534.26,283.15,564.6,256.84C1372.92,467.37,1036.93,308.11,960,79
		S820.57-946.78,881-881"/>
	<path class="st0" d="M779.96,236.23c3.34,3.33,535.97,287.27,565.98,256.23C1375.95,461.42,1032.66,283.74,960,50
		S849.01-980.41,910-910"/>
	<path class="st0" d="M781.94,235.65c3.33,3.33,537.68,283.76,567.36,255.65C1378.98,463.19,1036.05,297.72,960,67
		S831.45-960.38,893-893"/>
	<path class="st0" d="M783.93,235.11c3.34,3.34,539.41,291.3,568.76,255.11C1382.03,454.04,1028.45,256.7,960,18
		s-80.11-1035.37-18-960"/>
	<path class="st0" d="M785.94,234.62c3.33,3.33,541.15,284.23,570.16,254.62c29.01-29.6-320.58-200.2-396.1-432.24
		S840.32-971.71,903-903"/>
	<path class="st0" d="M787.95,234.17c3.34,3.34,542.89,282.38,571.57,254.18C1388.19,460.15,1037.42,295.56,960,65
		S831.75-962.22,895-895"/>
	<path class="st0" d="M789.97,233.77c3.33,3.34,544.64,291.07,572.97,253.78C1391.28,450.25,1028.82,249.59,960,10
		s-73.82-1036.26-10-960"/>
	<path class="st0" d="M791.99,233.43c3.33,3.33,546.38,274.82,574.38,253.42C1394.38,465.45,1045.23,328.64,960,105
		S790.6-915.31,855-855"/>
	<path class="st0" d="M794.01,233.12c3.33,3.33,548.14,277.64,575.8,253.12C1397.48,461.72,1042.64,312.71,960,86
		S809.03-937.37,874-874"/>
	<path class="st0" d="M796.04,232.88c3.34,3.33,549.91,278.86,577.23,252.88C1400.6,459.78,1041.71,305.13,960,77
		S817.45-947.79,883-883"/>
	<path class="st0" d="M798.09,232.69c3.34,3.33,551.69,279.81,578.67,252.69C1403.74,458.27,1041.13,299.23,960,70
		S823.87-955.9,890-890"/>
	<path class="st0" d="M800.15,232.56c3.33,3.34,553.46,279.33,580.1,252.57S1042.04,300.85,960,72S821.29-953.52,888-888"/>
	<path class="st0" d="M802.21,232.49c3.33,3.33,555.24,288.4,581.54,252.49C1410.05,449.06,1033.46,255,960,17
		s-84.29-1034.66-17-960"/>
	<path class="st0" d="M804.25,232.45c3.34,3.34,557.03,276.2,582.98,252.46C1413.19,461.16,1046.21,315.82,960,90
		S802.13-932.48,870-870"/>
	<path class="st0" d="M806.28,232.47c3.34,3.33,558.78,277.21,584.4,252.47C1416.3,460.19,1045.78,310.82,960,84
		S807.55-939.49,876-876"/>
	<path class="st0" d="M808.3,232.53c3.34,3.34,560.53,291.13,585.81,252.54C1419.4,446.48,1032.52,241.68,960,1
		s-70.02-1037.34-1-960"/>
	<path class="st0" d="M810.31,232.65c3.34,3.33,562.27,277.42,587.22,252.65C1422.48,460.52,1046.92,310.88,960,84
		S806.41-939.55,876-876"/>
	<path class="st0" d="M812.3,232.81c3.34,3.34,564,287.62,588.62,252.81C1425.53,450.82,1037.49,260.94,960,24s-94.15-1033.6-24-960
		"/>
	<path class="st0" d="M814.28,233.01c3.33,3.34,565.7,287.19,589.99,253.02C1428.56,451.86,1038.71,264.34,960,28
		s-98.71-1033-28-960"/>
	<path class="st0" d="M816.24,233.26c3.33,3.34,567.4,279.48,591.37,253.27C1431.57,460.32,1047.27,304.42,960,76
		S812.73-949.09,884-884"/>
	<path class="st0" d="M818.18,233.57c3.34,3.33,569.09,292.17,592.73,253.57C1434.55,448.55,1035.48,242.86,960,2
		s-73.82-1037.52-2-960"/>
	<path class="st0" d="M820.12,233.92c3.33,3.33,570.77,277.23,594.08,253.91C1437.51,464.51,1051.37,319.64,960,94
		S793.63-928.31,866-866"/>
	<path class="st0" d="M822.03,234.3c3.34,3.33,572.43,282.34,595.43,254.29C1440.45,460.54,1047.24,296.43,960,66
		S821.09-961.1,894-894"/>
	<path class="st0" d="M823.93,234.72c3.33,3.34,574.08,288.18,596.75,254.73C1443.36,455.99,1042.45,269.91,960,34
		S852.55-998.57,926-926"/>
	<path class="st0" d="M825.81,235.18c3.33,3.33,575.7,292.04,598.07,255.17C1446.24,453.49,1039.65,253.39,960,14
		s-87.98-1036.06-14-960"/>
	<path class="st0" d="M827.67,235.66c3.33,3.34,577.31,277.95,599.37,255.67C1449.09,469.05,1054.84,326.89,960,102
		S783.49-919.55,858-858"/>
	<path class="st0" d="M829.51,236.19c3.33,3.33,578.91,280.05,600.66,256.19C1451.92,468.51,1053.86,319.56,960,93
		S791.97-930.23,867-867"/>
	<path class="st0" d="M831.32,236.73c3.33,3.33,580.48,278.84,601.93,256.72C1454.69,471.33,1056.21,328.91,960,104
		S780.46-917.58,856-856"/>
	<path class="st0" d="M833.11,237.29c3.34,3.33,582.04,293,603.18,257.29C1457.44,458.86,1043.22,261.6,960,23
		s-99.05-1035.26-23-960"/>
	<path class="st0" d="M834.86,237.88c3.34,3.33,583.55,292.35,604.41,257.87S1045.04,268.46,960,31
		c-85.05-237.46-107.55-1034.13-31-960"/>
	<path class="st0" d="M836.59,238.48c3.33,3.33,585.04,297.89,605.61,258.47C1462.77,457.54,1040.7,244.49,960,2
		s-79.03-1039.16-2-960"/>
	<path class="st0" d="M838.28,239.1c3.33,3.34,586.51,297.96,606.8,259.11C1465.36,459.35,1041.85,248.03,960,6s-83.51-1038.7-6-960
		"/>
	<path class="st0" d="M839.93,239.76c3.34,3.33,587.94,286.56,607.95,259.76C1467.9,472.73,1054.48,309.09,960,79
		S803.02-947.75,881-881"/>
	<path class="st0" d="M841.54,240.44c3.34,3.34,589.34,292.36,609.09,260.45C1470.37,468.98,1049.94,284.31,960,49
		S832.56-982.98,911-911"/>
	<path class="st0" d="M843.12,241.16c3.33,3.33,590.7,292.02,610.18,261.16C1472.78,471.46,1051.55,290.39,960,56
		S825.12-975.05,904-904"/>
	<path class="st0" d="M844.63,241.92c3.33,3.33,592.01,293.74,611.24,261.92C1475.1,472.02,1051.14,286.47,960,51
		S829.69-981.14,909-909"/>
	<path class="st0" d="M846.09,242.7c3.33,3.33,593.27,301.65,612.26,262.7C1477.33,466.45,1044.56,251.73,960,9s-88.72-1039.4-9-960
		"/>
	<path class="st0" d="M847.51,243.5c3.33,3.34,594.51,290.59,613.25,263.5c18.75-27.08-403.8-195-500.76-426S798.87-946.67,879-879"
		/>
	<path class="st0" d="M848.89,244.33c3.34,3.33,595.71,298.21,614.23,264.32C1481.63,474.77,1050.69,278.94,960,41
		S838.48-993.61,919-919"/>
	<path class="st0" d="M850.24,245.18c3.33,3.34,596.87,305.88,615.17,265.19C1483.7,469.67,1044.4,245.89,960,1s-81.9-1041.56-1-960
		"/>
	<path class="st0" d="M851.51,246.08c3.34,3.33,597.98,304.26,616.06,266.08C1485.65,473.98,1047.43,259.53,960,17
		s-98.26-1039.19-17-960"/>
	<path class="st0" d="M852.7,247.01c3.34,3.33,599.01,301.85,616.9,267.01C1487.48,479.19,1051.27,277.34,960,38S840.4-998,922-922"
		/>
	<path class="st0" d="M853.81,247.97c3.34,3.33,599.97,307.47,617.67,267.97C1489.18,476.45,1047.08,255.16,960,11
		s-92.91-1040.82-11-960"/>
	<path class="st0" d="M854.87,248.94c3.34,3.33,600.89,308.93,618.42,268.94C1490.81,477.89,1047.05,253.81,960,9
		s-91.21-1041.48-9-960"/>
	<path class="st0" d="M855.85,249.94c3.34,3.33,601.74,298.1,619.1,269.94C1492.31,491.73,1059.33,314.15,960,81
		S796.51-948.81,879-879"/>
	<path class="st0" d="M856.79,250.94c3.33,3.34,602.55,305.43,619.75,270.94C1493.74,487.39,1053.42,283.65,960,44
		S833.24-992.31,916-916"/>
	<path class="st0" d="M857.68,251.96c3.33,3.34,603.32,307.63,620.38,271.97C1495.11,488.27,1052.68,278.99,960,38
		S838.99-999.65,922-922"/>
	<path class="st0" d="M858.53,252.99c3.33,3.34,604.05,297.83,620.97,273C1496.41,501.15,1063.92,334.33,960,104S772.75-923,856-856
		"/>
	<path class="st0" d="M859.33,254.03c3.33,3.34,604.75,308.04,621.53,274.04C1497.64,494.06,1055.14,289.68,960,50
		S826.52-986.34,910-910"/>
	<path class="st0" d="M860.09,255.08c3.33,3.34,605.41,303.6,622.06,275.09C1498.8,501.65,1061.03,318.36,960,84
		S792.31-947.03,876-876"/>
	<path class="st0" d="M860.81,256.13c3.33,3.34,606.03,318.49,622.56,276.13C1499.9,489.91,1047.56,250.38,960,2
		s-85.9-1045.04-2-960"/>
	<path class="st0" d="M861.49,257.19c3.34,3.33,606.63,319.56,623.05,277.19C1500.96,492.02,1047.92,251.56,960,3
		s-87.09-1045.23-3-960"/>
	<path class="st0" d="M862.15,258.25c3.33,3.33,607.19,315.96,623.5,278.25C1501.96,498.79,1052.94,276.08,960,32
		s-116.28-1040.75-32-960"/>
	<path class="st0" d="M862.75,259.33c3.33,3.33,607.72,310.21,623.93,279.32C1502.88,507.76,1060.11,311.44,960,74
		S801.55-960.11,886-886"/>
	<path class="st0" d="M863.29,260.42c3.33,3.34,608.18,320.33,624.3,280.43C1503.71,500.94,1051.43,267.64,960,21
		s-105.6-1043.31-21-960"/>
	<path class="st0" d="M863.75,261.56c3.33,3.33,608.58,312.48,624.62,281.56C1504.42,512.19,1060.73,313.85,960,76
		S799.27-958.52,884-884"/>
	<path class="st0" d="M864.12,262.73c3.34,3.34,608.91,326.03,624.89,282.74C1504.99,502.18,1048.67,253.41,960,3
		s-87.83-1047.08-3-960"/>
	<path class="st0" d="M864.43,263.94c3.34,3.33,609.18,318.09,625.11,283.93C1505.47,513.72,1058.09,300.48,960,59
		S816.08-979.15,901-901"/>
	<path class="st0" d="M864.66,265.17c3.33,3.33,609.37,326.86,625.26,285.16C1505.81,508.64,1050.82,264.22,960,15
		s-99.99-1045.89-15-960"/>
	<path class="st0" d="M864.8,266.41c3.34,3.34,609.5,325.16,625.36,286.42C1506.03,514.09,1054.03,280.47,960,34
		s-119.03-1043.14-34-960"/>
	<path class="st0" d="M864.91,267.67c3.33,3.33,609.58,326.28,625.43,287.67C1506.19,516.73,1054.39,282.56,960,36
		s-121.06-1043.22-36-960"/>
	<path class="st0" d="M864.99,268.92c3.33,3.34,609.65,318.75,625.49,288.93C1506.31,528.03,1063.41,327.97,960,90
		S784.92-944.64,870-870"/>
	<path class="st0" d="M865.06,270.16c3.33,3.34,609.71,328.03,625.53,290.17C1506.42,522.47,1055.6,289.22,960,43
		S831.9-999.89,917-917"/>
	<path class="st0" d="M865.1,271.41c3.33,3.34,609.75,321.32,625.57,291.42C1506.49,532.92,1063.78,330.47,960,92
		S782.89-943.14,868-868"/>
	<path class="st0" d="M865.1,272.67c3.33,3.33,609.74,321.78,625.56,292.67C1506.48,536.23,1064.78,335.89,960,98
		S776.89-936.56,862-862"/>
	<path class="st0" d="M865.07,273.93c3.33,3.34,609.72,332.59,625.55,293.93C1506.44,529.21,1055.44,289.64,960,42
		s-127.1-1044.31-42-960"/>
	<path class="st0" d="M864.97,275.22c3.33,3.34,609.64,334.1,625.48,295.23C1506.29,531.58,1055.41,290.07,960,42
		s-127.07-1044.74-42-960"/>
	<path class="st0" d="M864.83,276.53c3.33,3.33,609.51,337.45,625.37,296.53C1506.07,532.14,1053.53,281.34,960,31
		s-116.03-1047.01-31-960"/>
	<path class="st0" d="M864.63,277.85c3.33,3.33,609.34,338.32,625.23,297.84C1505.76,535.22,1054.14,285.12,960,35
		s-119.98-1046.78-35-960"/>
	<path class="st0" d="M864.39,279.16c3.33,3.33,609.14,328.35,625.07,299.15C1505.4,549.12,1065.58,343.05,960,104
		S771.09-931.72,856-856"/>
	<path class="st0" d="M864.12,280.48c3.34,3.33,608.91,340.88,624.89,300.47C1504.99,540.54,1054.5,288.49,960,38
		s-122.83-1047.16-38-960"/>
	<path class="st0" d="M863.85,281.79c3.33,3.33,608,333.42,624.69,301.79C1505.23,551.95,1066.76,334.6,964,92S787.91-950.6,872-872
		"/>
	<path class="st0" d="M863.55,283.1c3.33,3.34,608.41,334.29,624.48,303.11C1504.11,555.02,1064.01,337.7,960,96
		S779.33-942.37,864-864"/>
	<path class="st0" d="M863.22,284.42c3.33,3.34,608.12,347.16,624.25,304.42C1503.6,546.11,1052.58,281.47,960,28
		s-112.58-1050.14-28-960"/>
	<path class="st0" d="M862.86,285.74c3.33,3.33,607.81,349.52,624,305.74C1503.05,547.69,1051.64,277.75,960,23
		s-107.48-1051.41-23-960"/>
	<path class="st0" d="M862.47,287.06c3.33,3.33,607.46,338.57,623.72,307.06C1502.45,562.61,1064.03,340.69,960,98
		S777.63-941.35,862-862"/>
	<path class="st0" d="M862.03,288.39c3.33,3.33,607.09,340.29,623.42,308.39C1501.78,564.88,1063.74,340.3,960,97
		S778.76-942.96,863-863"/>
	<path class="st0" d="M861.55,289.73c3.33,3.33,606.68,350.51,623.08,309.72C1501.04,558.66,1054.94,297.41,960,45
		s-129.11-1049.08-45-960"/>
	<path class="st0" d="M861.02,291.07c3.33,3.33,606.21,352.24,622.71,311.07C1500.23,560.96,1054.62,297.02,960,44
		s-127.95-1049.69-44-960"/>
	<path class="st0" d="M860.43,292.43c3.33,3.33,605.71,353.16,622.3,312.43C1499.33,564.12,1055.12,300.81,960,48
		s-131.79-1049.48-48-960"/>
	<path class="st0" d="M859.84,293.77c3.33,3.34,605.19,357.07,621.88,313.78c16.7-43.3-429.1-317.96-521.72-573.55
		s-117.62-1052.26-34-960"/>
	<path class="st0" d="M859.19,295.13c3.34,3.33,604.63,361.81,621.44,315.12C1497.43,563.56,1049.27,274.21,960,15
		s-98.44-1055.88-15-960"/>
	<path class="st0" d="M858.52,296.48c3.33,3.34,604.05,354.07,620.96,316.49C1496.39,575.39,1058.41,321.33,960,71
		S805.75-975.99,889-889"/>
	<path class="st0" d="M857.81,297.84c3.34,3.33,603.44,353.31,620.47,317.84C1495.32,580.21,1060.55,333.45,960,85
		S791.95-960.11,875-875"/>
	<path class="st0" d="M857.06,299.2c3.33,3.33,602.79,365.24,619.94,319.2c17.16-46.03-427-336.17-517-595.4s-105.83-1055.9-23-960"
		/>
	<path class="st0" d="M856.27,300.57c3.33,3.33,602.09,354.16,619.38,320.57C1492.94,587.54,1062.44,346.02,960,99
		S778.39-944.69,861-861"/>
	<path class="st0" d="M855.43,301.93c3.34,3.34,601.38,363.09,618.81,321.94C1491.66,582.71,1054.87,309.81,960,55
		S822.63-996.48,905-905"/>
	<path class="st0" d="M854.55,303.3c3.33,3.34,600.61,361.86,618.18,323.31C1490.31,588.06,1057.46,324.43,960,72
		S805.88-977.1,888-888"/>
	<path class="st0" d="M853.6,304.68c3.34,3.33,599.79,366.63,617.53,324.68C1488.86,587.42,1054.02,309.06,960,53
		S825.15-999.73,907-907"/>
	<path class="st0" d="M852.61,306.07c3.33,3.34,598.93,365.42,616.82,326.08C1487.33,592.8,1056.57,323.69,960,70
		S808.43-980.36,890-890"/>
	<path class="st0" d="M851.56,307.47c3.34,3.34,598.03,376.89,616.1,327.48C1485.73,585.53,1046.44,274.99,960,11
		s-92.28-1060.66-11-960"/>
	<path class="st0" d="M850.48,308.88c3.34,3.33,597.09,369.36,615.34,328.88C1484.08,597.28,1055.3,321.29,960,66
		S813.03-985.96,894-894"/>
	<path class="st0" d="M849.37,310.28c3.33,3.33,596.12,364.83,614.56,330.28C1482.36,606.01,1061.15,352.59,960,103
		S776.35-943.26,857-857"/>
	<path class="st0" d="M848.25,311.67c3.33,3.33,595.15,372.28,613.78,331.66C1480.65,602.72,1055,323.89,960,68
		S811.66-984.56,892-892"/>
	<path class="st0" d="M847.12,313.04c3.33,3.33,594.17,375.38,612.99,333.04C1478.92,603.74,1053.18,316.85,960,59
		S820.98-995.51,901-901"/>
	<path class="st0" d="M845.98,314.41c3.33,3.33,593.18,378.15,612.18,334.41C1477.17,605.09,1051.69,311.47,960,52
		s-131.69-1056.14-52-960"/>
	<path class="st0" d="M844.83,315.78c3.33,3.33,592.18,370.57,611.37,335.77C1475.4,616.76,1060.53,357.76,960,107
		S773.63-940.43,853-853"/>
	<path class="st0" d="M843.62,317.14c3.34,3.33,591.15,373.99,610.54,337.14C1473.56,617.42,1058.36,349.05,960,96
		S784.97-953.71,864-864"/>
	<path class="st0" d="M842.4,318.5c3.33,3.33,590.08,381.91,609.68,338.49C1471.68,613.58,1051.68,317.83,960,58
		S823.32-998.5,902-902"/>
	<path class="st0" d="M841.14,319.85c3.33,3.34,588.99,390,608.8,339.85C1469.75,609.56,1044.82,285.78,960,19
		s-97.32-1063.45-19-960"/>
	<path class="st0" d="M839.85,321.2c3.33,3.34,587.86,387.24,607.89,341.21C1467.77,616.37,1048.79,307.9,960,45
		s-122.96-1059.57-45-960"/>
	<path class="st0" d="M838.52,322.55c3.33,3.33,586.72,382.64,606.96,342.55C1465.73,625.01,1054.58,339.18,960,82
		S800.42-971.85,878-878"/>
	<path class="st0" d="M837.16,323.91c3.33,3.33,585.53,388.22,606.01,343.9C1463.64,623.49,1050.19,319.64,960,58
		s-135.19-1058.3-58-960"/>
	<path class="st0" d="M835.75,325.26c3.33,3.33,584.32,389.13,605.03,345.25C1461.48,626.64,1050.46,323.42,960,62
		S821.2-996.09,898-898"/>
	<path class="st0" d="M834.3,326.6c3.33,3.34,583.06,387.54,604.01,346.61C1459.26,632.27,1053.22,339.7,960,81
		S802.62-974.37,879-879"/>
	<path class="st0" d="M832.8,327.95c3.34,3.33,581.77,400.77,602.96,347.95C1456.96,623.07,1041.13,281.82,960,11
		s-86.96-1067.48-11-960"/>
	<path class="st0" d="M831.27,329.3c3.34,3.33,580.44,398.68,601.9,349.3c21.45-49.39-388.81-378-473.17-645.6
		s-108.53-1064.27-33-960"/>
	<path class="st0" d="M829.7,330.66c3.34,3.33,579.08,401.93,600.8,350.65C1452.21,630.04,1042.25,292.72,960,23
		s-98.08-1066.39-23-960"/>
	<path class="st0" d="M828.09,332.01c3.33,3.33,577.68,391.68,599.66,352.01C1449.74,644.35,1053.63,352.34,960,94
		c-93.62-258.34-168.63-1055-94-960"/>
	<path class="st0" d="M826.44,333.36c3.34,3.33,576.25,399.09,598.51,353.36C1447.21,640.99,1047.33,323.62,960,59
		s-133.16-1061.29-59-960"/>
	<path class="st0" d="M824.78,334.72c3.33,3.33,574.81,402.83,597.34,354.71C1444.66,641.31,1044.69,313.24,960,46
		s-119.69-1063.91-46-960"/>
	<path class="st0" d="M823.06,336.08c3.33,3.33,573.32,406.09,596.14,356.08C1442.03,642.14,1042.53,305.36,960,36
		s-109.2-1066.03-36-960"/>
	<path class="st0" d="M821.31,337.44c3.34,3.33,571.81,399.84,594.92,357.44C1439.34,652.47,1049.87,344.98,960,83
		S804.29-975.65,877-877"/>
	<path class="st0" d="M819.53,338.79c3.34,3.34,570.27,399.26,593.68,358.8C1436.62,657.12,1051.53,356.26,960,96
		S791.8-960.93,864-864"/>
	<path class="st0" d="M817.74,340.15c3.33,3.33,568.71,414.33,592.42,360.14C1433.87,646.1,1037.53,289.22,960,15
		s-86.69-1070.88-15-960"/>
	<path class="st0" d="M815.93,341.49c3.33,3.34,567.13,413.75,591.14,361.5C1431.09,650.74,1039.18,300.5,960,28
		s-99.18-1069.16-28-960"/>
	<path class="st0" d="M814.08,342.85c3.34,3.33,565.54,402.99,589.86,362.85C1428.26,665.56,1050.99,362.62,960,102
		S787.34-955.28,858-858"/>
	<path class="st0" d="M812.21,344.21c3.34,3.33,563.92,417.75,588.55,364.21C1425.39,654.89,1037.29,297.24,960,23
		s-93.13-1070.9-23-960"/>
	<path class="st0" d="M810.29,345.58c3.34,3.33,562.25,411.51,587.21,365.58C1422.45,665.23,1044.58,336.86,960,70
		S820.42-993.53,890-890"/>
	<path class="st0" d="M808.34,346.95c3.34,3.34,560.56,420.11,585.84,366.96C1419.46,660.75,1037.03,302.32,960,28
		s-97.03-1070.98-28-960"/>
	<path class="st0" d="M806.35,348.33c3.34,3.34,558.84,414.89,584.45,368.34C1416.41,670.11,1043.3,336.94,960,69
		S822.53-995.61,891-891"/>
	<path class="st0" d="M804.35,349.72c3.33,3.33,557.1,417.34,583.04,369.72C1413.33,671.82,1041.9,333.24,960,64
		s-131.9-1065.91-64-960"/>
	<path class="st0" d="M802.3,351.11c3.34,3.34,555.34,416.97,581.62,371.12C1410.2,676.37,1043.32,343.7,960,76
		S816.68-988.37,884-884"/>
	<path class="st0" d="M800.23,352.51c3.34,3.33,553.54,425.6,580.17,372.51C1407.03,671.94,1035.73,309.17,960,34
		s-100.73-1071.84-34-960"/>
	<path class="st0" d="M798.1,353.94c3.34,3.33,551.69,415.59,578.67,373.93C1403.76,686.22,1046.8,367.98,960,104
		S789.87-956.65,856-856"/>
	<path class="st0" d="M795.92,355.38c3.33,3.33,549.8,428.44,577.15,375.37C1400.41,677.69,1035.01,312.63,960,37
		s-102.51-1072.29-37-960"/>
	<path class="st0" d="M793.72,356.82c3.33,3.34,547.88,432.3,575.6,376.83C1397.03,678.18,1032.22,302.27,960,24
		s-88.89-1074.94-24-960"/>
	<path class="st0" d="M791.48,358.27c3.34,3.34,543.12,436.16,574.04,378.28C1396.44,678.67,1043.59,294.76,977,11
		s-72.42-1094.59-11-977"/>
	<path class="st0" d="M789.23,359.73c3.33,3.34,544,435.02,572.46,379.73C1390.15,684.18,1031.61,306.58,960,28
		s-91.61-1075.24-28-960"/>
	<path class="st0" d="M786.94,361.18c3.33,3.34,542.01,428.39,570.85,381.19C1386.63,695.17,1039.3,348.73,960,78
		S819.03-989.4,882-882"/>
	<path class="st0" d="M784.64,362.64c3.34,3.34,540.03,434.25,569.25,382.65C1383.12,693.68,1034.48,328.38,960,53
		s-115.32-1072.05-53-960"/>
	<path class="st0" d="M782.34,364.09c3.33,3.33,538.02,428.93,567.63,384.08C1379.58,703.33,1040.83,363.86,960,95
		S803.34-970.53,865-865"/>
	<path class="st0" d="M780.03,365.53c3.34,3.33,534.53,436.61,566.02,385.52C1377.55,699.96,1041.68,335.84,969,59
		s-118.51-1081.01-59-969"/>
	<path class="st0" d="M777.71,366.97c3.34,3.33,534.02,437.8,564.4,386.97S1034.02,337.32,960,62s-122.35-1071.99-62-960"/>
	<path class="st0" d="M775.38,368.4c3.34,3.33,532,442.13,562.77,388.4C1368.92,703.07,1030.69,324.47,960,46
		s-105.69-1075.13-46-960"/>
	<path class="st0" d="M773.03,369.83c3.33,3.33,529.96,443.63,561.12,389.82C1365.31,705.85,1030.19,325.78,960,47
		s-106.03-1075.44-47-960"/>
	<path class="st0" d="M770.65,371.26c3.34,3.33,527.9,445.3,559.46,391.26C1361.67,708.47,1029.52,326.25,960,47
		s-105.35-1075.92-47-960"/>
	<path class="st0" d="M768.25,372.7c3.34,3.33,525.82,452.97,557.78,392.69C1357.99,705.11,1022.84,296.73,960,11
		s-68.67-1082.4-11-960"/>
	<path class="st0" d="M765.83,374.13c3.33,3.33,523.72,450.65,556.08,394.13S1026.15,317.21,960,35s-91.98-1078.88-35-960"/>
	<path class="st0" d="M763.39,375.56c3.34,3.33,521.61,446.48,554.38,395.56C1350.54,720.19,1031.29,346.85,960,70
		s-126.29-1073.52-70-960"/>
	<path class="st0" d="M760.95,376.98c3.33,3.34,519.49,452.81,552.66,396.98C1346.79,718.13,1025.94,323.99,960,42
		s-97.6-1078.66-42-960"/>
	<path class="st0" d="M758.5,378.4c3.34,3.34,517.37,459.14,550.96,398.4C1343.04,716.07,1020.58,301.13,960,14
		s-68.91-1083.8-14-960"/>
	<path class="st0" d="M756.02,379.82c3.34,3.33,515.22,462.95,549.22,399.82C1339.24,716.5,1017.71,290.77,960,1
		s-55.21-1086.44-1-960"/>
	<path class="st0" d="M753.52,381.22c3.34,3.33,513.06,456.09,547.47,401.22S1025.5,333.74,960,52s-105.5-1078.41-52-960"/>
	<path class="st0" d="M750.99,382.61c3.33,3.33,510.85,457.71,545.69,402.61C1331.51,730.11,1024.78,334.2,960,52
		s-104.78-1078.87-52-960"/>
	<path class="st0" d="M748.43,383.98c3.33,3.34,508.64,462.81,543.9,403.98C1327.59,729.13,1020.56,317.16,960,31
		s-83.06-1082.83-31-960"/>
	<path class="st0" d="M745.85,385.34c3.34,3.34,506.41,456.73,542.1,405.34C1323.64,739.29,1027.49,355.95,960,77
		S831.68-998.61,883-883"/>
	<path class="st0" d="M743.25,386.69c3.34,3.33,504.15,467.3,540.28,406.69C1319.65,732.76,1017.75,311.4,960,23
		s-73.59-1085.06-23-960"/>
	<path class="st0" d="M740.65,388.02c3.34,3.33,500.74,471.53,538.46,408.02C1316.84,732.54,1020.19,299.67,967,7
		s-55.69-1095.17-7-967"/>
	<path class="st0" d="M738.05,389.34c3.33,3.33,499.64,460.07,536.63,409.34C1311.67,747.96,1026.61,363.95,960,85
		S825.89-990.61,875-875"/>
	<path class="st0" d="M735.44,390.65c3.34,3.33,497.39,468.92,534.82,410.65C1307.68,743.02,1018.54,327.72,960,41
		s-89.38-1083.38-41-960"/>
	<path class="st0" d="M732.81,391.94c3.33,3.33,495.1,470.6,532.96,411.94C1303.64,745.23,1017.63,327.31,960,40
		s-87.63-1083.98-40-960"/>
	<path class="st0" d="M730.17,393.22c3.34,3.34,492.82,464.76,531.13,413.22C1299.6,754.91,1024.22,364.41,960,84
		S829.12-993.07,876-876"/>
	<path class="st0" d="M727.52,394.49c3.33,3.33,490.52,468.74,529.26,414.49C1295.53,754.73,1020.96,352.33,960,69
		s-115.13-1080-69-960"/>
	<path class="st0" d="M724.86,395.74c3.33,3.34,488.2,473.54,527.39,415.75C1291.45,753.7,1016.88,336.08,960,49
		s-94.38-1083.75-49-960"/>
	<path class="st0" d="M722.17,396.99c3.34,3.33,485.88,473.32,525.52,416.99C1287.33,757.64,1017.78,344.83,960,59
		s-103.62-1082.5-59-960"/>
	<path class="st0" d="M719.49,398.22c3.33,3.33,483.56,483.25,523.65,418.22C1283.22,751.4,1008.52,302.74,960,8
		s-51.86-1091.41-8-960"/>
	<path class="st0" d="M716.78,399.44c3.33,3.33,481.21,478.84,521.74,419.43C1279.06,759.47,1013.59,332.31,960,43
		s-86.09-1085.98-43-960"/>
	<path class="st0" d="M714.06,400.64c3.33,3.33,478.85,473.08,519.84,420.64C1274.89,768.84,1019.98,368.55,960,86
		S831.68-993.21,874-874"/>
	<path class="st0" d="M711.32,401.83c3.33,3.34,476.47,477.98,517.92,421.84C1270.69,767.53,1015.71,351.44,960,65
		s-106.54-1083.11-65-960"/>
	<path class="st0" d="M708.56,403.02c3.33,3.33,474.08,481.18,515.99,423.01C1266.45,767.86,1013.09,342.67,960,54
		s-94.76-1085.34-54-960"/>
	<path class="st0" d="M705.79,404.19c3.33,3.33,471.68,484.71,514.05,424.18S1010.14,332.23,960,41s-80.97-1087.9-41-960"/>
	<path class="st0" d="M703,405.34c3.34,3.34,469.27,478.74,512.1,425.35C1257.94,777.3,1016.68,369.28,960,85S835.82-995.95,875-875
		"/>
	<path class="st0" d="M700.18,406.49c3.34,3.33,466.83,483.41,510.13,426.49C1253.61,776.07,1012.55,353,960,65
		s-103.39-1084.66-65-960"/>
	<path class="st0" d="M697.32,407.63c3.34,3.33,464.35,480.89,508.13,427.62C1249.23,781.98,1015.57,372.54,960,88
		S834.43-993.21,872-872"/>
	<path class="st0" d="M694.43,408.75c3.34,3.33,461.84,495.87,506.1,428.75C1244.8,770.37,1001.09,304.58,960,6
		s-42.76-1095.25-6-960"/>
	<path class="st0" d="M691.51,409.86c3.33,3.34,459.31,484.34,504.06,429.86C1240.32,785.25,1013.09,369.12,960,83
		S841.07-999.79,877-877"/>
	<path class="st0" d="M688.56,410.96c3.33,3.34,456.75,494.63,501.99,430.97S1003.26,324.49,960,29s-64.09-1092.15-29-960"/>
	<path class="st0" d="M685.58,412.05c3.33,3.34,454.17,486.9,499.91,432.06C1231.22,789.27,1011.41,369.85,960,83
		s-117.25-1083.52-83-960"/>
	<path class="st0" d="M682.58,413.12c3.34,3.34,451.58,494.15,497.81,433.13C1226.63,785.23,1004.57,340.21,960,47
		s-80.4-1089.87-47-960"/>
	<path class="st0" d="M679.55,414.18c3.33,3.34,448.94,492.55,495.68,434.18C1221.97,790,1006.54,354.73,960,64
		s-96.54-1087.39-64-960"/>
	<path class="st0" d="M676.48,415.23c3.33,3.33,446.28,499.94,493.54,435.23C1217.27,785.76,999.5,324.24,960,27
		s-58.67-1093.91-27-960"/>
	<path class="st0" d="M673.4,416.27c3.33,3.33,443.61,487.81,491.38,436.27C1212.54,800.99,1011.96,391.26,960,107
		S822.2-973.92,853-853"/>
	<path class="st0" d="M670.3,417.3c3.33,3.33,440.93,494.51,489.21,437.29C1207.79,797.37,1005.58,364.1,960,74
		s-103.92-1086.77-74-960"/>
	<path class="st0" d="M667.16,418.31c3.33,3.34,435.37,495.87,487.01,438.31C1205.81,799.07,1018.7,366.44,977,73
		s-99.2-1104.27-73-977"/>
	<path class="st0" d="M664.03,419.32c3.33,3.33,435.49,498.71,484.82,439.32C1198.18,799.25,1001.98,355.61,960,63
		s-91.14-1089.27-63-960"/>
	<path class="st0" d="M660.9,420.32c3.33,3.33,432.77,510.36,482.62,440.31S990.59,303.44,960,0s-27.25-1100.11,0-960"/>
	<path class="st0" d="M657.78,421.3c3.33,3.34,430.08,501.36,480.45,441.31C1188.6,802.56,999.87,354.6,960,61
		s-87.37-1090.27-61-960"/>
	<path class="st0" d="M654.7,422.28c3.33,3.33,427.4,507.16,478.29,442.28C1183.87,799.68,994.33,331.59,960,33
		s-58.5-1095.26-33-960"/>
	<path class="st0" d="M651.64,423.25c3.34,3.33,424.76,499.29,476.16,443.24C1179.19,810.45,1002.47,376.92,960,87
		S848.37-999.58,873-873"/>
	<path class="st0" d="M648.62,424.2c3.34,3.34,418.14,505.41,474.04,444.21C1178.55,807.21,1016.61,356.23,984,57
		s-76.78-1115.9-57-984"/>
	<path class="st0" d="M645.63,425.15c3.33,3.34,419.55,498.35,471.94,445.16c52.4-53.2-113.64-476.93-157.57-764.31
		S831.07-978.05,854-854"/>
	<path class="st0" d="M642.66,426.09c3.33,3.33,416.97,512.44,469.86,446.09S990.09,328.7,960,28s-50.09-1097.36-28-960"/>
	<path class="st0" d="M639.69,427.02c3.33,3.33,414.4,517.69,467.78,447.02C1160.86,803.37,985.08,308.17,960,3
		s-24.25-1101.84-3-960"/>
	<path class="st0" d="M636.73,427.94c3.33,3.33,411.83,514.43,465.71,447.94C1156.31,809.39,988.57,330.15,960,29
		s-49.41-1097.81-29-960"/>
	<path class="st0" d="M633.77,428.85c3.33,3.33,409.27,516.99,463.64,448.85S986.24,322.95,960,20s-39.57-1099.62-20-960"/>
	<path class="st0" d="M630.81,429.76c3.33,3.34,406.7,514.89,461.57,449.76C1147.24,814.4,988.56,339.09,960,39
		s-57.73-1096.75-39-960"/>
	<path class="st0" d="M627.86,430.66c3.33,3.34,404.14,514.78,459.49,450.67C1142.71,817.22,988.89,345.22,960,46
		s-63.89-1095.89-46-960"/>
	<path class="st0" d="M624.92,431.56c3.33,3.33,401.59,520.32,457.44,451.56S983.56,323.02,960,19s-36.06-1100.69-19-960"/>
	<path class="st0" d="M621.99,432.44c3.33,3.34,399.05,520.52,455.39,452.44C1133.71,816.81,983.56,327.48,960,24
		s-40.23-1100.15-24-960"/>
	<path class="st0" d="M619.07,433.32c3.34,3.33,396.53,510.87,453.35,453.32C1129.24,829.08,993.4,381.11,960,88
		s-103.4-1089.77-88-960"/>
	<path class="st0" d="M616.16,434.18c3.34,3.34,394.01,523.05,451.32,454.19C1124.78,819.51,981.41,325.56,960,21
		s-35.58-1101.23-21-960"/>
	<path class="st0" d="M613.25,435.04c3.33,3.34,391.48,524.55,449.27,455.05C1120.32,820.58,980.09,323.35,960,18
		s-31.75-1102.01-18-960"/>
	<path class="st0" d="M610.33,435.89c3.33,3.34,388.95,515.04,447.23,455.89C1115.84,832.64,989.76,376.13,960,81
		s-93.93-1091.8-81-960"/>
	<path class="st0" d="M607.4,436.73c3.34,3.34,386.42,519.53,445.18,456.74C1111.35,830.68,985.43,358.91,960,60
		s-72.1-1095.58-60-960"/>
	<path class="st0" d="M604.48,437.57c3.33,3.33,382.05,516.99,443.14,457.56C1108.7,835.7,997.27,378.52,971,81
		s-90.44-1103.36-81-971"/>
	<path class="st0" d="M601.57,438.39c3.33,3.33,381.35,517.96,441.09,458.39C1102.4,837.22,987.28,376.96,960,81
		s-91.44-1092.63-81-960"/>
	<path class="st0" d="M598.67,439.21c3.33,3.33,378.84,521.9,439.06,459.2C1097.96,835.71,983.46,362.24,960,63
		s-72.62-1095.9-63-960"/>
	<path class="st0" d="M595.79,440.01c3.33,3.34,376.34,527.19,437.05,460.02C1093.54,832.86,978.31,340.84,960,37
		s-45.81-1100.5-37-960"/>
	<path class="st0" d="M592.91,440.81c3.33,3.34,372.86,530.29,435.04,460.82C1090.13,832.16,980.32,331.27,966,24
		s-30.99-1108.94-24-966"/>
	<path class="st0" d="M590.03,441.61c3.33,3.33,371.36,533.04,433.02,461.6C1084.71,831.78,972.67,321.37,960,13
		s-20.17-1105.04-13-960"/>
	<path class="st0" d="M587.13,442.39c3.33,3.33,368.84,528.12,430.99,462.39C1080.26,839.05,977.69,350.8,960,48
		s-54.35-1099.46-48-960"/>
	<path class="st0" d="M584.21,443.17c3.33,3.33,366.32,523.69,428.95,463.16C1075.79,845.8,982.19,377.72,960,80
		s-85.53-1094.39-80-960"/>
	<path class="st0" d="M581.29,443.93c3.33,3.34,363.78,535.76,426.9,463.94S970.2,322.14,960,13s-17.7-1105.81-13-960"/>
	<path class="st0" d="M578.38,444.69c3.33,3.33,361.26,529.29,424.86,464.68C1066.85,844.76,976.71,359.06,960,57
		s-60.87-1098.73-57-960"/>
	<path class="st0" d="M575.5,445.43c3.33,3.33,358.77,533.33,422.85,465.43C1062.43,842.95,972.73,343.48,960,38
		s-41.06-1102.14-38-960"/>
	<path class="st0" d="M572.65,446.16c3.34,3.34,356.3,536.03,420.86,466.17S970.08,334.55,960,27s-29.25-1104.22-27-960"/>
	<path class="st0" d="M569.83,446.89c3.33,3.34,353.86,532.54,418.88,466.89C1053.74,848.14,973.62,356.46,960,53
		s-54.45-1100.13-53-960"/>
	<path class="st0" d="M567.04,447.61c3.33,3.34,351.43,524.72,416.93,467.62c65.49-57.11-2.48-515.19-23.97-810.23
		S854.34-986.7,855-855"/>
	<path class="st0" d="M564.26,448.33c3.34,3.33,349.03,534.38,414.99,468.32C1045.2,850.6,971.87,356.11,960,52
		s-51.87-1100.78-52-960"/>
	<path class="st0" d="M561.51,449.03c3.34,3.34,346.65,534.71,413.06,469.04C1040.99,852.4,971.6,358.84,960,55
		s-54.1-1100.51-55-960"/>
	<path class="st0" d="M558.77,449.73c3.33,3.34,344.27,542.19,411.14,469.74c66.87-72.46-5.76-593.73-9.91-904.47
		s-13.32-1107.41-15-960"/>
	<path class="st0" d="M556.04,450.43c3.33,3.33,341.9,541.16,409.23,470.42C1032.6,850.12,965.21,335.14,960,26
		s-23.54-1105.81-26-960"/>
	<path class="st0" d="M553.29,451.1c3.34,3.34,339.52,535.29,407.31,471.1c67.78-64.18,10.5-553.5-0.6-856.2s-62.77-1099.37-66-960"
		/>
	<path class="st0" d="M550.52,451.77c3.34,3.33,337.12,543.23,405.37,471.77S963.15,333.09,960,23s-18.98-1106.76-23-960"/>
	<path class="st0" d="M547.74,452.42c3.33,3.34,334.7,541.16,403.41,472.43C1019.86,856.11,965.19,347.47,960,40
		s-35.19-1104.14-40-960"/>
	<path class="st0" d="M544.94,453.06c3.33,3.33,332.28,545.07,401.46,473.06S961.23,331.85,960,21s-15.4-1107.52-21-960"/>
	<path class="st0" d="M542.13,453.69c3.33,3.33,329.84,538.47,399.49,473.69C1011.26,862.6,967.77,368.73,960,65
		s-58.6-1100.4-65-960"/>
	<path class="st0" d="M539.31,454.3c3.33,3.34,327.39,544.85,397.51,474.3S961.3,340.6,960,31s-23.8-1106.27-31-960"/>
	<path class="st0" d="M536.49,454.91c3.33,3.33,324.96,536.23,395.54,474.91C1002.62,868.5,969.84,387.47,960,87
		s-79.01-1097.14-87-960"/>
	<path class="st0" d="M533.67,455.5C537,458.83,856.18,995.25,927.23,931c71.06-64.25,38.98-557.5,32.77-861s-61.21-1100.17-70-960"
		/>
	<path class="st0" d="M530.85,456.08c3.33,3.34,320.06,539.44,391.59,476.09C993.96,868.82,966.41,378.69,960,76
		s-66.41-1099.36-76-960"/>
	<path class="st0" d="M528.03,456.65c3.34,3.34,317.63,537.77,389.62,476.66C989.65,872.2,967.94,390.55,960,90
		s-79.61-1097.22-90-960"/>
	<path class="st0" d="M525.22,457.22c3.34,3.33,315.2,546.75,387.66,477.21C985.34,864.9,958.81,349.07,960,40
		s-28.81-1105.74-40-960"/>
	<path class="st0" d="M522.41,457.77c3.33,3.33,312.75,550.89,385.68,477.76S954.51,331.76,960,19s-7.01-1109.42-19-960"/>
	<path class="st0" d="M519.61,458.3c3.33,3.33,310.32,544.84,383.72,478.29C976.73,870.05,960.39,365.27,960,59
		s-46.22-1102.93-59-960"/>
	<path class="st0" d="M516.81,458.82c3.33,3.34,307.9,554.3,381.77,478.83C972.44,862.18,950.76,321.27,960,6s7.57-1111.94-6-960"/>
	<path class="st0" d="M514.03,459.34c3.33,3.33,305.49,541.22,379.82,479.33S963.64,389.78,960,88s-73.64-1098.45-88-960"/>
	<path class="st0" d="M511.24,459.82c3.34,3.34,303.08,554.8,377.87,479.83S949.85,324.94,960,10s5.15-1111.61-10-960"/>
	<path class="st0" d="M508.44,460.29c3.33,3.34,300.64,557.01,375.9,480.3C959.6,863.87,947.39,316.76,960,0s15.94-1113.43,0-960"/>
	<path class="st0" d="M505.61,460.74c3.33,3.34,298.19,557.03,373.93,480.74C955.27,865.19,947.09,319.41,960,3s13.74-1113.08-3-960
		"/>
	<path class="st0" d="M502.79,461.17c3.33,3.34,295.75,542.87,371.95,481.18C950.94,880.65,960.96,392.89,960,91
		s-73.46-1098.56-91-960"/>
	<path class="st0" d="M499.96,461.59c3.33,3.34,293.3,551.36,369.97,481.59C946.61,873.42,952.16,353.03,960,43
		s-24.66-1106.7-43-960"/>
	<path class="st0" d="M497.14,461.99c3.33,3.33,290.85,550.15,367.99,481.98C942.28,875.81,953.02,361.5,960,53
		s-33.86-1105.16-53-960"/>
	<path class="st0" d="M494.33,462.35c3.33,3.33,288.42,547.4,366.03,482.34C937.97,879.64,955.39,377.45,960,72
		s-52.06-1102.12-72-960"/>
	<path class="st0" d="M491.53,462.68c3.33,3.34,285.99,547.3,364.07,482.69C933.68,880.75,955.1,380.06,960,75
		s-54.27-1101.73-75-960"/>
	<path class="st0" d="M488.73,463c3.33,3.33,283.57,554.16,362.11,482.99C929.39,874.83,947.81,347.67,960,36s-14.47-1108.33-36-960
		"/>
	<path class="st0" d="M485.94,463.3c3.33,3.33,281.14,557.18,360.15,483.29C925.11,872.71,944.35,334.43,960,20s2.32-1111.1-20-960"
		/>
	<path class="st0" d="M483.16,463.57c3.33,3.34,278.74,556.01,358.21,483.58C920.85,874.72,945.06,342.02,960,29
		s-5.9-1109.69-29-960"/>
	<path class="st0" d="M480.4,463.84c3.33,3.33,276.35,551.98,356.28,483.84S948.61,363.78,960,55s-31.11-1105.45-55-960"/>
	<path class="st0" d="M477.64,464.08c3.34,3.33,273.96,545.93,354.35,484.08C912.39,886.31,954.17,395.53,960,93
		s-68.33-1099.19-93-960"/>
	<path class="st0" d="M474.9,464.31c3.34,3.33,271.58,557.36,352.43,484.31S942.22,339.77,960,26s-0.56-1110.44-26-960"/>
	<path class="st0" d="M472.18,464.52c3.33,3.33,269.22,553.93,350.52,484.51S945.12,358.17,960,48s-21.78-1106.84-48-960"/>
	<path class="st0" d="M469.48,464.71c3.33,3.33,266.88,559.83,348.63,484.71C899.87,874.3,938.69,329.9,960,14s12.98-1112.57-14-960
		"/>
	<path class="st0" d="M466.8,464.89c3.33,3.34,264.55,556.71,346.75,484.9C895.75,877.97,941.26,346.63,960,34s-6.26-1109.3-34-960"
		/>
	<path class="st0" d="M464.13,465.06c3.33,3.34,262.24,561.58,344.89,485.07C891.66,873.62,935.84,323.35,960,6s22.5-1114.02-6-960"
		/>
	<path class="st0" d="M461.47,465.22c3.34,3.34,259.95,554.93,343.04,485.23C887.59,880.74,941.92,357.57,960,47
		s-17.75-1107.24-47-960"/>
	<path class="st0" d="M458.84,465.36c3.33,3.33,257.65,561.76,341.18,485.36C883.55,874.33,934.5,324.29,960,7s23-1113.95-7-960"/>
	<path class="st0" d="M456.21,465.48c3.34,3.33,255.39,547.56,339.35,485.48C879.53,888.88,948.09,395.99,960,93
		s-62.26-1099.66-93-960"/>
	<path class="st0" d="M453.6,465.58c3.34,3.34,253.13,560.02,337.53,485.59C875.52,876.74,935.02,334.36,960,19
		s12.48-1112.03-19-960"/>
	<path class="st0" d="M451.01,465.68c3.33,3.33,250.87,546.45,335.7,485.67C871.55,890.57,947.95,402.73,960,101
		S891.21-997.39,859-859"/>
	<path class="st0" d="M448.43,465.75c3.33,3.33,248.64,552.38,333.9,485.75C867.59,884.88,941.39,373.58,960,66
		s-33.05-1104.25-66-960"/>
	<path class="st0" d="M445.86,465.81c3.33,3.34,246.41,551.78,332.1,485.82C863.65,885.66,941.33,376.94,960,70
		s-36.33-1103.6-70-960"/>
	<path class="st0" d="M443.31,465.86c3.33,3.34,244.2,558.01,330.31,485.87C859.74,879.59,934.44,346.12,960,33s1.4-1109.79-33-960"
		/>
	<path class="st0" d="M440.76,465.9c3.33,3.33,241.99,562.38,328.53,485.89C855.83,875.31,929.38,324.47,960,7s28.12-1114.13-7-960"
		/>
	<path class="st0" d="M438.22,465.92c3.33,3.33,239.79,553.4,326.76,485.91C851.94,884.35,937.66,369.47,960,61
		s-25.16-1105.14-61-960"/>
	<path class="st0" d="M435.7,465.92c3.33,3.33,237.6,549.57,324.99,485.92C848.07,888.18,940.78,388.64,960,84
		s-47.45-1101.31-84-960"/>
	<path class="st0" d="M433.19,465.91c3.33,3.33,235.43,554.06,323.23,485.91S935.57,366.14,960,57s-19.74-1105.8-57-960"/>
	<path class="st0" d="M430.69,465.89c3.33,3.33,233.27,561.04,321.48,485.89C840.39,876.63,927.86,331.13,960,15
		s22.97-1112.8-15-960"/>
	<path class="st0" d="M428.21,465.86c3.33,3.33,231.11,545.67,319.74,485.86C836.58,891.91,942.49,407.79,960,107
		S891.67-990.45,853-853"/>
	<path class="st0" d="M425.75,465.82c3.33,3.34,226.98,549.13,318.02,485.82C834.81,888.34,948.3,392.27,972,86
		s-44.63-1112.94-86-972"/>
	<path class="st0" d="M423.3,465.76c3.34,3.34,226.87,555.23,316.32,485.77C829.06,882.07,931.44,359.42,960,49
		s-8.94-1107.09-49-960"/>
	<path class="st0" d="M420.86,465.68c3.33,3.33,224.74,555.79,314.6,485.67C825.32,881.24,930.08,356.06,960,45
		s-4.24-1107.73-45-960"/>
	<path class="st0" d="M418.43,465.55c3.33,3.33,222.63,557.64,312.89,485.55C821.59,879.01,927.39,346.02,960,33
		s8.45-1109.68-33-960"/>
	<path class="st0" d="M415.99,465.39c3.34,3.34,220.53,547.46,311.2,485.4C817.86,888.72,936.7,395.96,960,93s-50.87-1099.63-93-960
		"/>
	<path class="st0" d="M413.56,465.21c3.34,3.33,218.43,548.41,309.5,485.21S934.84,390.07,960,86s-43.18-1100.74-86-960"/>
	<path class="st0" d="M411.16,465.03c3.33,3.33,216.34,561.2,307.81,485.03C810.44,873.88,921.16,325.01,960,8s35.51-1113.68-8-960"
		/>
	<path class="st0" d="M408.76,464.83c3.34,3.33,214.27,561.46,306.14,484.83C806.77,873.02,919.98,322.44,960,5s39.18-1114.11-5-960
		"/>
	<path class="st0" d="M406.37,464.6c3.33,3.33,212.19,548.87,304.46,484.6S931.64,384.03,960,79s-34.14-1101.7-79-960"/>
	<path class="st0" d="M404,464.35c3.33,3.34,210.14,551.42,302.8,484.36C799.47,881.65,928.13,369.78,960,62s-16.47-1104.45-62-960"
		/>
	<path class="st0" d="M401.63,464.1c3.34,3.33,208.08,554.62,301.14,484.1C795.84,877.68,923.96,352.2,960,41s5.2-1107.87-41-960"/>
	<path class="st0" d="M399.29,463.83c3.33,3.33,206.04,552.47,299.5,483.83C792.24,879.02,925.13,361.28,960,52
		s-5.13-1105.94-52-960"/>
	<path class="st0" d="M396.95,463.54c3.34,3.33,204.03,544.3,297.87,483.54C788.66,886.32,932.3,400.35,960,99
		s-51.47-1098.01-99-960"/>
	<path class="st0" d="M394.63,463.24c3.33,3.33,202.01,552.27,296.24,483.23S923.31,358.58,960,49s-0.81-1106.25-49-960"/>
	<path class="st0" d="M392.31,462.9c3.33,3.34,200,559.22,294.61,482.91C781.54,869.49,915.32,321.8,960,5s43.85-1113.47-5-960"/>
	<path class="st0" d="M390,462.55c3.33,3.34,197.99,542.82,292.99,482.56S930.67,401.68,960,101S908.5-996.35,859-859"/>
	<path class="st0" d="M387.7,462.18c3.33,3.33,196,555.71,291.38,482.18C774.47,870.83,916.68,334.89,960,21s29.15-1110.56-21-960"
		/>
	<path class="st0" d="M385.41,461.79c3.33,3.33,194.02,550.08,289.78,481.78C770.96,875.28,921.2,360.6,960,52s-1.2-1105.26-52-960"
		/>
	<path class="st0" d="M383.13,461.37c3.33,3.33,192.04,552.93,288.19,481.37C767.46,871.18,917.22,343.79,960,32
		s19.45-1108.46-32-960"/>
	<path class="st0" d="M380.86,460.93c3.34,3.34,190.08,554.1,286.61,480.94C763.99,868.71,914.91,335.31,960,22
		s30.09-1109.98-22-960"/>
	<path class="st0" d="M378.6,460.48c3.33,3.33,188.11,539.38,285.01,480.47C760.51,882.04,928.44,405.99,960,107
		S905.73-988.66,853-853"/>
	<path class="st0" d="M376.34,459.99c3.33,3.33,186.16,547.32,283.44,479.99C757.05,872.65,919.3,363.33,960,56s-2.63-1104-56-960"
		/>
	<path class="st0" d="M374.09,459.49c3.34,3.33,184.22,549.91,281.87,479.49C753.61,868.57,915.49,347.33,960,37s17.01-1107-37-960"
		/>
	<path class="st0" d="M371.86,458.98c3.33,3.33,182.27,538.8,280.3,478.97C750.18,878.12,925.36,399.66,960,100
		S914.64-996.33,860-860"/>
	<path class="st0" d="M369.65,458.45c3.33,3.33,180.35,554.85,278.75,478.44C746.79,860.48,908.07,316.15,960,0s55.27-1112.82,0-960
		"/>
	<path class="st0" d="M367.44,457.91c3.34,3.34,178.45,548.9,277.21,477.91C743.41,864.84,912.78,342.64,960,32s23.89-1107.3-32-960
		"/>
	<path class="st0" d="M365.26,457.36c3.34,3.34,176.56,540.76,275.69,477.37C740.07,871.33,919.66,379.95,960,77
		s-20.49-1099.62-77-960"/>
	<path class="st0" d="M363.1,456.8c3.34,3.33,174.69,549.93,274.18,476.8C736.76,860.47,909.21,330.6,960,18s39.12-1109.27-18-960"
		/>
	<path class="st0" d="M360.96,456.21c3.33,3.33,172.82,544.25,272.66,476.21C733.46,864.39,913.6,355.4,960,48s9.73-1104.07-48-960"
		/>
	<path class="st0" d="M358.83,455.61c3.33,3.33,170.98,548.21,271.18,475.61C730.2,858.62,908.33,331.87,960,20
		s38.33-1108.54-20-960"/>
	<path class="st0" d="M356.71,454.99c3.33,3.34,169.15,549.49,269.7,475C726.96,855.49,905.73,321.66,960,8s50.93-1110.33-8-960"/>
	<path class="st0" d="M354.61,454.37c3.34,3.34,167.34,549.1,268.23,474.38C723.74,854.02,904.81,319.79,960,6s53.53-1110.46-6-960"
		/>
	<path class="st0" d="M352.53,453.75c3.33,3.33,165.52,540.54,266.77,473.75C720.54,860.71,912.05,358.75,960,53
		s7.12-1102.42-53-960"/>
	<path class="st0" d="M350.46,453.13c3.33,3.34,163.73,536.66,265.32,473.13C717.37,862.74,914.63,374.38,960,72
		s-11.3-1099.04-72-960"/>
	<path class="st0" d="M348.41,452.52c3.34,3.33,161.96,547.44,263.89,472.52C714.24,850.12,902.55,316.67,960,3s58.28-1110.34-3-960
		"/>
	<path class="st0" d="M346.39,451.91c3.33,3.33,160.2,529.72,262.47,471.9S918.98,401.47,960,105S916.86-988.14,855-855"/>
	<path class="st0" d="M344.38,451.29c3.34,3.33,158.47,532.33,261.07,471.28C708.06,861.52,915.08,384.6,960,85
		s-22.58-1096.26-85-960"/>
	<path class="st0" d="M342.4,450.67c3.33,3.34,156.74,528.12,259.68,470.68C705.01,863.9,918.01,401.89,960,106
		S916.99-986.56,854-854"/>
	<path class="st0" d="M340.43,450.06c3.34,3.33,155.05,544.06,258.31,470.05S900.79,318.35,960,6s57.54-1109.02-6-960"/>
	<path class="st0" d="M338.49,449.44c3.33,3.33,153.35,533.17,256.94,469.43S910.4,368.98,960,67c49.59-301.98-2.91-1098.65-67-960"
		/>
	<path class="st0" d="M336.56,448.81c3.34,3.34,151.69,542.12,255.6,468.81C696.06,844.32,900.19,320.44,960,9s55.64-1108.1-9-960"
		/>
	<path class="st0" d="M334.64,448.17c3.34,3.34,150.03,530.71,254.25,468.18C693.12,853.82,910.32,373.56,960,73
		s-7.82-1097.22-73-960"/>
	<path class="st0" d="M332.74,447.53c3.34,3.34,148.38,528.46,252.93,467.53C690.21,854.14,911.28,380.84,960,82
		s-16.28-1095.51-82-960"/>
	<path class="st0" d="M330.86,446.88c3.34,3.33,146.75,524.02,251.61,466.87C687.32,856.61,914.41,398.96,960,104
		S922.26-987.63,856-856"/>
	<path class="st0" d="M329,446.21c3.34,3.33,145.14,532.91,250.3,466.21C684.47,845.71,904.22,350.4,960,46s20.78-1101.07-46-960"/>
	<path class="st0" d="M327.15,445.54c3.33,3.33,143.53,524.29,249,465.53C681.63,852.32,911.53,389.35,960,93s-25.69-1093.01-93-960
		"/>
	<path class="st0" d="M325.31,444.85c3.33,3.33,141.94,523.99,247.72,464.85C678.81,850.56,910.5,386.62,960,90
		s-22.17-1093.28-90-960"/>
	<path class="st0" d="M323.49,444.15c3.34,3.34,140.36,522.51,246.45,464.15C676.02,849.95,910.66,389.72,960,94
		s-25.66-1092.38-94-960"/>
	<path class="st0" d="M321.69,443.45c3.34,3.33,138.81,530.19,245.19,463.45S901.65,346.98,960,43s25.85-1100.65-43-960"/>
	<path class="st0" d="M319.91,442.75c3.34,3.33,134.93,530.03,243.94,462.74C672.87,838.2,912.14,345.75,974,39
		s32.69-1115.08-39-974"/>
	<path class="st0" d="M318.15,442.03c3.33,3.33,135.73,532.36,242.7,462.03C667.83,833.72,896.81,327.34,960,20
		s49.86-1104.01-20-960"/>
	<path class="st0" d="M316.4,441.31c3.34,3.33,134.22,522.19,241.48,461.31C665.15,841.73,905.65,373.77,960,76
		s-5.65-1094.44-76-960"/>
	<path class="st0" d="M314.66,440.57c3.34,3.34,132.71,521.51,240.26,460.58C662.48,840.22,904.99,372.69,960,75
		s-4.15-1094.36-75-960"/>
	<path class="st0" d="M312.94,439.84c3.33,3.33,131.21,520.48,239.06,459.84C659.84,839.04,904.67,373.28,960,76
		s-4.67-1093.95-76-960"/>
	<path class="st0" d="M311.23,439.1c3.34,3.33,129.74,519.29,237.87,459.1C657.22,838.02,904.52,374.7,960,78s-6.18-1093.37-78-960"
		/>
	<path class="st0" d="M309.54,438.36c3.34,3.33,128.28,521.59,236.68,458.36C654.63,833.49,900.87,358.62,960,59
		s13.3-1096.29-59-960"/>
	<path class="st0" d="M307.87,437.62c3.34,3.33,126.82,514.88,235.51,457.61C652.07,837.96,906.23,387.54,960,94
		s-21.23-1090.21-94-960"/>
	<path class="st0" d="M306.23,436.87c3.33,3.33,125.4,517.18,234.36,456.87S902.6,371.46,960,75s-1.76-1093.12-75-960"/>
	<path class="st0" d="M304.6,436.12c3.33,3.33,123.99,518.14,233.22,456.12C647.06,830.22,900.3,362.04,960,64s9.7-1094.71-64-960"
		/>
	<path class="st0" d="M303.01,435.35c3.34,3.33,122.62,527.41,232.11,455.35C644.62,818.64,889.69,310.95,960,3s71.15-1104.62-3-960
		"/>
	<path class="st0" d="M301.47,434.56c3.33,3.33,121.27,519.98,231.02,454.55C642.25,823.69,895.75,343.19,960,42
		s32.58-1097.85-42-960"/>
	<path class="st0" d="M299.97,433.75c3.33,3.33,119.97,509.88,229.98,453.75C639.95,831.38,904.49,388.75,960,97
		s-21.99-1088.42-97-960"/>
	<path class="st0" d="M298.52,432.92c3.34,3.34,118.72,511.25,228.97,452.93C637.74,827.53,901.75,376.81,960,83
		s-7.58-1090.47-83-960"/>
	<path class="st0" d="M297.14,432.09c3.33,3.34,117.52,517.45,227.99,452.1C635.61,818.84,894.19,340.7,960,40s35.81-1097.36-40-960
		"/>
	<path class="st0" d="M295.81,431.25c3.34,3.34,116.38,513.13,227.07,451.26C633.58,820.63,897.15,357.08,960,60
		s16.19-1093.75-60-960"/>
	<path class="st0" d="M294.57,430.39c3.34,3.33,115.3,522.12,226.2,450.39C631.68,809.05,886.8,306.8,960,0s76.54-1103.46,0-960"/>
	<path class="st0" d="M293.42,429.52c3.33,3.33,114.29,510.93,225.39,449.51C629.9,817.61,896.63,357.34,960,61
		s15.87-1093.01-61-960"/>
	<path class="st0" d="M292.32,428.64c3.33,3.34,113.34,514.08,224.62,448.64C628.22,811.84,892.16,336.21,960,36
		s41.18-1096.88-36-960"/>
	<path class="st0" d="M291.28,427.76c3.33,3.33,112.43,517.71,223.89,447.75C626.62,805.55,887.19,312.59,960,8s69.47-1101.25-8-960
		"/>
	<path class="st0" d="M290.29,426.86c3.34,3.33,111.59,506.67,223.21,446.86C625.11,813.91,896.92,362.29,960,68
		s9.75-1090.95-68-960"/>
	<path class="st0" d="M289.34,425.96c3.34,3.33,110.77,513.62,222.54,445.96C623.66,804.26,888.65,321.99,960,20
		s58.02-1098.65-20-960"/>
	<path class="st0" d="M288.44,425.06c3.33,3.33,109.98,508.57,221.9,445.06C622.27,806.61,892.39,341.69,960,44
		s34.28-1094.35-44-960"/>
	<path class="st0" d="M287.56,424.16c3.34,3.33,109.23,501.52,221.3,444.16C620.93,810.96,898.14,371.39,960,80
		s-1.48-1088.05-80-960"/>
	<path class="st0" d="M286.72,423.26c3.34,3.33,108.5,510.46,220.71,443.25C619.64,799.31,887.91,321.09,960,20
		s58.76-1097.75-20-960"/>
	<path class="st0" d="M285.92,422.35c3.33,3.34,107.79,498.59,220.14,442.36C618.4,808.48,898.51,374.95,960,85
		s-6.01-1086.62-85-960"/>
	<path class="st0" d="M285.15,421.45c3.33,3.33,107.13,495.69,219.61,441.45C617.23,808.66,900.13,383.82,960,96
		s-16.79-1084.48-96-960"/>
	<path class="st0" d="M284.44,420.54c3.33,3.33,106.52,510.29,219.11,440.53C616.14,791.32,884.26,305.18,960,2s77.41-1099.85-2-960
		"/>
	<path class="st0" d="M283.76,419.62c3.33,3.33,105.93,492.06,218.63,439.62C615.1,806.81,901.23,390.71,960,105
		S934.6-977.37,855-855"/>
	<path class="st0" d="M283.12,418.71c3.34,3.33,105.38,497.65,218.19,438.7C614.12,798.46,894.38,357.07,960,65
		s14.78-1088.74-65-960"/>
	<path class="st0" d="M282.53,417.79c3.33,3.33,104.85,502.08,217.77,437.79C613.21,791.28,888.72,329.26,960,32
		s47.95-1093.93-32-960"/>
	<path class="st0" d="M281.95,416.87c3.33,3.33,104.35,496.52,217.36,436.87C612.32,794.1,893.05,351.46,960,59
		s21.11-1089.12-59-960"/>
	<path class="st0" d="M281.38,415.96c3.33,3.33,103.86,490.12,216.96,435.96C611.44,797.76,898.22,377.82,960,91
		s-10.72-1083.49-91-960"/>
	<path class="st0" d="M280.82,415.06c3.33,3.34,103.38,490.74,216.58,435.06C610.59,794.45,896.4,369.19,960,81
		s-0.57-1084.85-81-960"/>
	<path class="st0" d="M280.28,414.17c3.34,3.33,102.92,492.37,216.2,434.17C609.77,790.15,893.58,355.56,960,65
		s15.59-1087.22-65-960"/>
	<path class="st0" d="M279.79,413.29c3.33,3.33,102.48,499,215.85,433.29C609.01,780.86,885.77,316.93,960,19s61.73-1094.6-19-960"
		/>
	<path class="st0" d="M279.33,412.42c3.33,3.33,102.09,493.48,215.53,432.41C608.31,783.76,890.14,339.14,960,46
		s34.86-1089.81-46-960"/>
	<path class="st0" d="M278.93,411.54c3.33,3.34,101.73,499.97,215.24,431.55C607.69,774.66,882.53,301.35,960,1s79.97-1097.01-1-960
		"/>
	<path class="st0" d="M278.57,410.67c3.33,3.33,101.43,494.61,215,430.66C607.14,777.39,886.76,322.72,960,27s54.07-1092.39-27-960"
		/>
	<path class="st0" d="M278.27,409.79c3.33,3.33,101.16,481.26,214.79,429.79C606.68,788.12,899.01,384.1,960,101
		S940.16-978.76,859-859"/>
	<path class="st0" d="M278,408.91c3.34,3.34,100.94,488.07,214.61,428.92C606.27,778.67,891.1,344.64,960,54s27.23-1087.3-54-960"/>
	<path class="st0" d="M277.78,408.04c3.33,3.34,100.73,485.39,214.44,428.05C605.92,778.75,892.7,352.68,960,64s17.3-1085.35-64-960
		"/>
	<path class="st0" d="M277.56,407.17c3.34,3.34,100.56,479.54,214.3,427.18C605.6,781.98,897.48,376.56,960,93
		s-11.64-1080.22-93-960"/>
	<path class="st0" d="M277.39,406.31c3.33,3.33,100.4,476.36,214.17,426.31S899.59,387.1,960,106S935.41-971.77,854-854"/>
	<path class="st0" d="M277.24,405.46c3.33,3.33,100.27,491.7,214.06,425.46C605.1,764.67,883.22,305.15,960,8s73.45-1093.82-8-960"
		/>
	<path class="st0" d="M277.11,404.61c3.33,3.34,100.16,482.72,213.98,424.62C604.9,771.12,891.18,344.87,960,56
		s25.49-1085.54-56-960"/>
	<path class="st0" d="M277.03,403.78c3.34,3.33,100.1,487.74,213.93,423.77C604.79,763.59,885.16,314.59,960,20
		s61.51-1091.26-20-960"/>
	<path class="st0" d="M277.01,402.95c3.33,3.33,100.07,478.11,213.9,422.95C604.74,770.74,893.82,357.65,960,72s9.52-1082.32-72-960
		"/>
	<path class="st0" d="M277.04,402.13c3.33,3.33,99.09,475.15,213.92,422.13S900.83,368.38,966,84s-1.49-1086.04-84-966"/>
	<path class="st0" d="M277.12,401.32c3.34,3.33,100.18,479.7,213.99,421.32C604.92,764.25,890.35,339.61,960,51
		s30.48-1085.27-51-960"/>
	<path class="st0" d="M277.26,400.53c3.33,3.33,100.29,471.44,214.08,420.52S897.72,376.01,960,95s-13.56-1077.68-95-960"/>
	<path class="st0" d="M277.44,399.74c3.33,3.33,100.45,485.03,214.21,419.74S883.27,303.25,960,8s73.39-1091.91-8-960"/>
	<path class="st0" d="M277.65,398.96c3.34,3.34,100.63,482.46,214.36,418.97C605.73,754.43,885,311.32,960,18s63.33-1089.99-18-960"
		/>
	<path class="st0" d="M277.9,398.19c3.33,3.34,100.85,484.06,214.53,418.2C606.11,750.52,882.57,298.56,960,3s78.26-1092.23-3-960"
		/>
	<path class="st0" d="M278.16,397.43c3.33,3.33,101.06,473.67,214.71,417.43C606.51,758.62,892.14,345.81,960,60
		s21.19-1082.48-60-960"/>
	<path class="st0" d="M278.43,396.69c3.34,3.33,101.31,477.8,214.91,416.68C606.93,752.26,887.22,320.56,960,30
		s51.11-1087.23-30-960"/>
	<path class="st0" d="M278.74,395.95c3.34,3.33,101.58,479.11,215.12,415.95C607.41,748.74,885.14,309.48,960,17
		s64.02-1089.15-17-960"/>
	<path class="st0" d="M279.12,395.24c3.33,3.33,101.9,474.45,215.38,415.24C607.98,751.27,889.08,328.41,960,40
		s40.92-1085.08-40-960"/>
	<path class="st0" d="M279.56,394.56c3.34,3.33,102.29,471.15,215.7,414.56C608.67,752.52,891.71,340.69,960,55
		s25.79-1082.35-55-960"/>
	<path class="st0" d="M280.07,393.9c3.34,3.34,102.74,466.22,216.06,413.91C609.45,755.49,896.02,361.3,960,80s0.65-1077.97-80-960"
		/>
	<path class="st0" d="M280.6,393.26c3.34,3.34,103.19,470.64,216.43,413.27C610.26,749.15,891,335.25,960,49s31.5-1082.92-49-960"/>
	<path class="st0" d="M281.19,392.65c3.33,3.33,103.69,467.59,216.83,412.65C611.15,750.36,893.5,346.72,960,63
		s17.33-1080.38-63-960"/>
	<path class="st0" d="M281.8,392.05c3.33,3.34,104.22,465.73,217.26,412.06C612.09,750.43,894.84,352.35,960,70
		s10.16-1079.02-70-960"/>
	<path class="st0" d="M282.44,391.47c3.33,3.34,104.78,471.39,217.7,411.48C613.07,743.04,888.69,320.49,960,32
		s47.98-1085.16-32-960"/>
	<path class="st0" d="M283.11,390.91c3.33,3.33,105.36,472.56,218.17,410.91C614.1,740.17,887.05,311.14,960,21s58.79-1086.8-21-960
		"/>
	<path class="st0" d="M283.82,390.36c3.33,3.33,105.97,460.75,218.67,410.36S898.42,366.79,960,88s-8.42-1075.45-88-960"/>
	<path class="st0" d="M284.56,389.83c3.33,3.33,106.61,471.96,219.19,409.82C616.32,737.52,886.79,307.44,960,17
		s62.38-1087.11-17-960"/>
	<path class="st0" d="M285.33,389.3c3.34,3.33,107.29,468.51,219.74,409.3C617.51,739.38,889.84,321.43,960,34s45.16-1084.1-34-960"
		/>
	<path class="st0" d="M286.14,388.79c3.33,3.33,107.99,468.08,220.3,408.78S889.91,320.43,960,33s45.93-1084.1-33-960"/>
	<path class="st0" d="M287,388.29c3.33,3.33,108.73,467.5,220.89,408.29C620.06,737.36,890.15,320.26,960,33s45.68-1083.93-33-960"
		/>
	<path class="st0" d="M287.89,387.81c3.33,3.34,109.51,455.29,221.52,407.82C621.43,748.16,902.07,378.44,960,103
		S935.43-969.1,857-857"/>
	<path class="st0" d="M288.84,387.36c3.33,3.33,110.32,465.75,222.18,407.35C622.88,736.32,891.34,323.29,960,37
		s41.16-1082.95-37-960"/>
	<path class="st0" d="M289.82,386.91c3.33,3.34,111.17,468.9,222.87,406.92C624.39,731.84,887.95,304.8,960,15s62.89-1086.47-15-960
		"/>
	<path class="st0" d="M290.83,386.47c3.33,3.34,112.04,467.22,223.57,406.48C625.93,732.2,889.4,310.49,960,22s55.6-1085.16-22-960"
		/>
	<path class="st0" d="M291.86,386.05c3.33,3.33,112.94,469.72,224.3,406.05C627.52,728.42,886.69,295.35,960,4s73.31-1088.02-4-960"
		/>
	<path class="st0" d="M292.93,385.64c3.33,3.33,113.87,460.08,225.05,405.64C629.16,736.84,896.16,341.05,960,59s18-1078.71-59-960"
		/>
	<path class="st0" d="M294.03,385.24c3.34,3.34,114.83,466.78,225.83,405.24C630.85,728.94,889.31,305.08,960,16
		s60.69-1085.75-16-960"/>
	<path class="st0" d="M295.16,384.86c3.34,3.33,115.81,453.67,226.62,404.86C632.58,740.91,902.3,368.29,960,92
		s-15.63-1072.95-92-960"/>
	<path class="st0" d="M296.33,384.5c3.33,3.33,116.82,463.25,227.43,404.5S892.63,318.17,960,32s44.04-1082.83-32-960"/>
	<path class="st0" d="M297.54,384.17c3.34,3.33,117.87,454.86,228.28,404.16C636.23,737.64,900.97,358.06,960,80
		s-4.3-1074.72-80-960"/>
	<path class="st0" d="M298.78,383.84c3.33,3.34,118.94,463.99,229.15,403.85C638.13,727.55,891.82,310.45,960,23
		s52.35-1084.11-23-960"/>
	<path class="st0" d="M300.05,383.55c3.33,3.33,120.04,460.97,230.04,403.54C640.08,729.67,894.85,323.68,960,39
		s35.99-1081.35-39-960"/>
	<path class="st0" d="M301.37,383.27c3.33,3.33,121.18,466.82,230.96,403.27C642.1,723,889.05,292.76,960,2s72.61-1087.42-2-960"/>
	<path class="st0" d="M302.73,383.03c3.33,3.33,122.37,464.86,231.91,403.03C644.19,724.22,891.11,301.01,960,12
		s62.23-1085.68-12-960"/>
	<path class="st0" d="M304.14,382.82c3.33,3.33,123.59,449.78,232.9,402.82C646.35,738.67,906.34,375.11,960,101
		S932.83-969.77,859-859"/>
	<path class="st0" d="M305.58,382.62c3.33,3.33,124.83,454.39,233.9,402.62C648.56,733.47,901.91,350.87,960,72s1.42-1075.54-72-960
		"/>
	<path class="st0" d="M307.05,382.44c3.34,3.34,126.12,449.85,234.94,402.45C650.81,737.48,906.66,372.48,960,98s-25-1071.15-98-960
		"/>
	<path class="st0" d="M308.54,382.28c3.33,3.33,127.39,454.32,235.97,402.28C653.09,732.51,902.42,349.09,960,70
		s2.58-1075.76-70-960"/>
	<path class="st0" d="M310.04,382.13c3.33,3.33,128.7,448.98,237.03,402.12C655.39,737.4,908.01,374.88,960,101
		S931.16-969.54,859-859"/>
	<path class="st0" d="M311.55,381.98c3.33,3.34,130.01,459.32,238.08,401.99C657.71,726.64,897.94,322.33,960,38
		s33.73-1080.99-38-960"/>
	<path class="st0" d="M313.07,381.86c3.33,3.34,131.33,458.18,239.15,401.87C660.04,727.42,899.37,327.29,960,44
		s27.3-1079.96-44-960"/>
	<path class="st0" d="M314.6,381.76c3.33,3.33,132.65,464.05,240.22,401.75C662.38,721.22,893.8,297.25,960,8s62.86-1085.92-8-960"
		/>
	<path class="st0" d="M316.13,381.66c3.34,3.33,133.99,447.77,241.3,401.66C664.74,737.21,910.4,378.05,960,105
		S925.43-964.72,855-855"/>
	<path class="st0" d="M317.68,381.56c3.33,3.34,135.32,464.82,242.37,401.56C667.11,719.86,893.68,292.19,960,2s67.99-1086.85-2-960
		"/>
	<path class="st0" d="M319.22,381.48c3.33,3.33,136.66,451.05,243.45,401.47C669.47,733.37,907.78,360.49,960,84
		s-14.45-1073.16-84-960"/>
	<path class="st0" d="M320.76,381.39c3.33,3.34,137.99,450.79,244.53,401.39C671.83,733.38,908.38,361.3,960,85
		s-15.88-1072.96-85-960"/>
	<path class="st0" d="M322.28,381.31c3.33,3.33,139.31,455.52,245.59,401.31C674.16,728.4,903.98,337.1,960,56s12.69-1077.77-56-960
		"/>
	<path class="st0" d="M323.81,381.23c3.33,3.34,140.63,448.61,246.66,401.24C676.51,735.1,911.25,371.24,960,97
		s-28.75-1070.91-97-960"/>
	<path class="st0" d="M325.34,381.16c3.33,3.34,141.95,447.69,247.73,401.16C678.85,735.8,912.51,375.39,960,102
		S925.82-968.05,858-858"/>
	<path class="st0" d="M326.86,381.1c3.33,3.33,143.28,464.62,248.8,401.1S895.94,290.37,960,0s67.39-1087.03,0-960"/>
	<path class="st0" d="M328.39,381.05c3.33,3.33,144.6,446.89,249.87,401.05C683.53,736.26,914.04,378.68,960,106
		S920.96-963.35,854-854"/>
	<path class="st0" d="M329.93,381c3.33,3.33,145.94,447.16,250.95,401C685.89,735.83,914.15,377,960,104S922.52-965.67,856-856"/>
	<path class="st0" d="M331.48,380.96c3.33,3.33,147.28,457.62,252.03,400.96C688.26,725.26,904.09,324.49,960,41
		s25.08-1080.15-41-960"/>
	<path class="st0" d="M333.04,380.94c3.34,3.33,148.64,461.6,253.14,400.94C690.67,721.22,900.53,304.48,960,17
		s48.64-1084.15-17-960"/>
	<path class="st0" d="M334.62,380.92c3.33,3.33,150,450.07,254.23,400.92C693.08,732.69,912.48,361.97,960,86s-20.81-1072.64-86-960
		"/>
	<path class="st0" d="M336.2,380.91c3.34,3.33,151.38,448.23,255.35,400.91C695.51,734.5,914.76,371.14,960,97s-32.26-1070.8-97-960
		"/>
	<path class="st0" d="M337.78,380.9c3.34,3.34,152.75,457.89,256.45,400.9C697.93,724.82,905.54,322.8,960,39s25.29-1080.47-39-960"
		/>
	<path class="st0" d="M339.37,380.9c3.33,3.34,154.12,458.56,257.56,400.91C700.37,724.16,905.32,319.47,960,35
		s28.85-1081.13-35-960"/>
	<path class="st0" d="M340.95,380.91c3.34,3.34,155.49,446.57,258.67,400.92C702.79,736.18,917.77,379.47,960,107
		S916.4-962.14,853-853"/>
	<path class="st0" d="M342.53,380.92c3.33,3.34,156.86,455.08,259.77,400.93C705.21,727.7,909.72,336.97,960,56s6.95-1077.64-56-960
		"/>
	<path class="st0" d="M344.09,380.94c3.34,3.33,158.22,458.59,260.87,400.93S906.66,319.48,960,35s27.51-1081.15-35-960"/>
	<path class="st0" d="M345.64,380.95c3.33,3.33,159.56,461.77,261.95,400.94C709.98,721.07,903.93,303.65,960,16
		s46.07-1084.32-16-960"/>
	<path class="st0" d="M347.17,380.96c3.34,3.33,160.72,463.95,263.02,400.95C712.5,718.92,903.03,292.99,961,3s58.8-1087.49-3-961"
		/>
	<path class="st0" d="M348.69,380.97c3.33,3.33,162.2,446.79,264.08,400.96C714.66,736.11,919.8,378.66,960,106
		S915.2-963.32,854-854"/>
	<path class="st0" d="M350.2,380.98c3.34,3.33,163.51,462.97,265.14,400.97C716.98,719.96,904.06,297.83,960,9s51.78-1085.49-9-960"
		/>
	<path class="st0" d="M351.7,380.99c3.33,3.33,164.81,448.32,266.19,400.99C719.27,734.64,919.15,371.16,960,97
		s-36.65-1070.83-97-960"/>
	<path class="st0" d="M353.2,381.01c3.33,3.33,166.1,464.01,267.23,401.01C721.57,719.01,903.91,292.84,960,3s56.93-1086.5-3-960"/>
	<path class="st0" d="M354.7,381.03c3.33,3.33,167.4,462.86,268.29,401.03C723.87,720.22,905.5,298.68,960,10s49.5-1085.34-10-960"
		/>
	<path class="st0" d="M356.21,381.07c3.33,3.33,168.72,456.08,269.35,401.06C726.19,727.12,912.76,332.86,960,51
		s8.07-1078.52-51-960"/>
	<path class="st0" d="M357.74,381.12c3.34,3.33,170.05,453.63,270.42,401.11C728.54,729.71,915.69,345.37,960,66
		s-7.36-1076.04-66-960"/>
	<path class="st0" d="M359.28,381.17c3.34,3.33,171.38,451.69,271.5,401.16C730.9,731.8,918.13,355.39,960,78s-19.8-1074.06-78-960"
		/>
	<path class="st0" d="M360.82,381.22c3.33,3.34,172.71,462.77,272.57,401.23C733.26,720.91,907.57,300.41,960,12
		s45.77-1085.07-12-960"/>
	<path class="st0" d="M362.34,381.28c3.33,3.33,174.03,448,273.64,401.28C735.59,735.85,922.83,374.59,960,101
		S916.34-969.26,859-859"/>
	<path class="st0" d="M363.85,381.34c3.33,3.33,175.33,460.23,274.69,401.34C737.9,723.79,911.09,313.78,960,28
		s28.91-1082.45-28-960"/>
	<path class="st0" d="M365.34,381.4c3.33,3.33,176.62,455.79,275.73,401.39C740.18,728.39,916.01,336.3,960,55s1.49-1077.97-55-960"
		/>
	<path class="st0" d="M366.81,381.45c3.34,3.33,177.91,459.86,276.77,401.45C742.45,724.49,912.43,316.32,960,31
		s25.07-1081.98-31-960"/>
	<path class="st0" d="M368.29,381.51c3.33,3.33,179.18,457.59,277.8,401.5C744.71,726.93,915.18,328,960,45s10.65-1079.67-45-960"/>
	<path class="st0" d="M369.74,381.56c3.34,3.34,180.45,461.49,278.83,401.56C746.94,723.2,911.76,308.85,960,22
		s33.24-1083.52-22-960"/>
	<path class="st0" d="M371.21,381.63c3.34,3.33,181.72,461.56,279.85,401.62S912.18,308.88,960,22s32.82-1083.54-22-960"/>
	<path class="st0" d="M372.66,381.7c3.34,3.33,182.98,459.82,280.87,401.7S914.42,318.07,960,33s21.41-1081.73-33-960"/>
	<path class="st0" d="M374.11,381.77c3.34,3.34,184.24,450.24,281.88,401.78C753.64,735.08,924.5,366.42,960,91s-37-1072.09-91-960"
		/>
	<path class="st0" d="M375.56,381.85c3.33,3.33,185.49,463.65,282.89,401.84C755.86,721.88,911.58,299.78,960,11
		s42.59-1085.45-11-960"/>
	<path class="st0" d="M377.01,381.93c3.33,3.33,186.73,457.41,283.9,401.92C758.08,728.37,918.32,331.48,960,49s4.18-1079.14-49-960
		"/>
	<path class="st0" d="M378.45,382.01c3.33,3.33,187.99,450.34,284.91,402.01C760.29,735.68,925.89,367.34,960,92s-39.23-1072-92-960
		"/>
	<path class="st0" d="M379.89,382.09c3.33,3.33,189.23,463.93,285.92,402.08C762.49,722.33,912.8,299.86,960,11
		s41.37-1085.53-11-960"/>
	<path class="st0" d="M381.32,382.18c3.34,3.33,190.48,465.37,286.93,402.17C764.7,721.16,911.87,293.23,960,3s48.96-1086.89-3-960"
		/>
	<path class="st0" d="M382.76,382.26c3.33,3.34,191.72,452.31,287.93,402.27C766.89,734.49,925.45,359.09,960,82
		s-30.45-1073.75-82-960"/>
	<path class="st0" d="M384.19,382.36c3.33,3.34,192.96,465.76,288.93,402.36C769.09,721.33,912.52,292.45,960,2s49.15-1087.12-2-960
		"/>
	<path class="st0" d="M385.62,382.46c3.33,3.33,194.2,462.37,289.93,402.46C771.28,725.01,916.42,309.99,960,23
		s27.74-1083.65-23-960"/>
	<path class="st0" d="M387.04,382.56c3.34,3.34,195.44,463.5,290.93,402.57C773.47,724.2,915.83,305.02,960,17s33.34-1084.69-17-960
		"/>
	<path class="st0" d="M388.47,382.68c3.33,3.33,196.67,454.29,291.92,402.68C775.65,733.74,925.57,351.73,960,73
		s-23.07-1075.39-73-960"/>
	<path class="st0" d="M389.89,382.79c3.33,3.33,197.9,461.76,292.92,402.79C777.83,726.62,918.63,315.1,960,29s20.53-1082.76-29-960
		"/>
	<path class="st0" d="M391.31,382.91c3.33,3.34,199.13,464.57,293.91,402.92C780,724.17,916.37,301.8,960,13s36.13-1085.47-13-960"
		/>
	<path class="st0" d="M392.72,383.03c3.34,3.34,200.36,463.71,294.91,403.04S917.77,306.84,960,19s29.73-1084.51-19-960"/>
	<path class="st0" d="M394.14,383.15c3.33,3.34,201.58,461.18,295.89,403.16C784.34,728.28,920.84,320.22,960,35
		s13.33-1081.88-35-960"/>
	<path class="st0" d="M395.55,383.28c3.33,3.34,202.81,454,296.88,403.29C786.51,735.85,928.57,356.93,960,79s-31.07-1074.59-79-960
		"/>
	<path class="st0" d="M396.95,383.41c3.33,3.33,204.02,455.14,297.86,403.41C788.65,735.08,927.97,351.97,960,73
		s-25.47-1075.64-73-960"/>
	<path class="st0" d="M398.34,383.55c3.33,3.33,205.23,450.13,298.84,403.54C790.79,740.5,933.53,377.85,960,104
		S903.14-966.52,856-856"/>
	<path class="st0" d="M399.73,383.68c3.34,3.33,206.44,461.29,299.82,403.68S922.92,322.89,960,38s8.74-1081.56-38-960"/>
	<path class="st0" d="M401.13,383.81c3.33,3.34,207.64,452.95,300.78,403.82C795.06,738.49,931.82,365.44,960,89
		s-42.65-1073.1-89-960"/>
	<path class="st0" d="M402.51,383.96c3.34,3.33,208.85,455.11,301.76,403.95C797.19,736.75,930.21,355.49,960,77
		s-31.05-1075.15-77-960"/>
	<path class="st0" d="M403.89,384.1c3.33,3.33,210.04,450.27,302.72,404.09C799.3,742.01,935.6,380.53,960,107S898.56-963.2,853-853
		"/>
	<path class="st0" d="M405.27,384.23c3.34,3.34,211.24,453.11,303.7,404.24C801.42,739.6,933.33,367.24,960,91
		s-45.83-1072.91-91-960"/>
	<path class="st0" d="M406.64,384.37c3.34,3.34,212.43,458.6,304.66,404.37C803.52,734.52,928.38,340.62,960,59
		s-14.22-1078.29-59-960"/>
	<path class="st0" d="M408.01,384.52c3.34,3.33,213.61,463.6,305.61,404.52C805.62,729.95,923.94,316.51,960,30s14.4-1083.17-30-960
		"/>
	<path class="st0" d="M409.38,384.66c3.33,3.34,214.8,457.28,306.57,404.67C807.72,736.72,930.82,349.05,960,69
		s-24.99-1076.72-69-960"/>
	<path class="st0" d="M410.73,384.81c3.34,3.33,215.97,451.27,307.52,404.8C809.79,743.15,937.37,379.94,960,106
		S897.63-964.6,854-854"/>
	<path class="st0" d="M412.07,384.95c3.34,3.33,217.13,469.11,308.45,404.95C811.85,725.74,920.09,291.65,960,0s43.25-1088.32,0-960
		"/>
	<path class="st0" d="M413.41,385.09c3.33,3.33,218.29,461.94,309.39,405.09S927.8,328.36,960,44s-1.13-1081.03-44-960"/>
	<path class="st0" d="M414.74,385.23c3.33,3.33,219.43,462.43,310.31,405.23C815.93,733.25,927.84,326.74,960,42
		s0.49-1081.41-42-960"/>
	<path class="st0" d="M416.06,385.37c3.33,3.33,220.58,462.59,311.24,405.36C817.96,733.5,928.22,326.79,960,42s0.12-1081.46-42-960
		"/>
	<path class="st0" d="M417.37,385.51c3.33,3.34,218.05,459.1,312.16,405.51C823.63,737.44,950.59,348.84,982,64
		s-18.59-1099.84-64-982"/>
	<path class="st0" d="M418.68,385.66c3.33,3.33,222.85,465.26,313.07,405.65C821.97,731.71,926.63,315.22,960,28
		s13.37-1083.89-28-960"/>
	<path class="st0" d="M420,385.8c3.33,3.33,223.99,460.27,313.99,405.8C824,737.13,932.17,341.1,960,59s-18-1078.77-59-960"/>
	<path class="st0" d="M421.33,385.94c3.33,3.34,225.15,459.77,314.92,405.95C826.03,738.06,933.21,344.48,960,63
		s-22.38-1078.15-63-960"/>
	<path class="st0" d="M422.65,386.09c3.34,3.34,226.3,467.61,315.86,406.1C828.07,730.67,925.92,306.2,960,17s23.25-1085.86-17-960"
		/>
	<path class="st0" d="M423.97,386.24c3.33,3.34,227.44,452.79,316.78,406.24C830.09,745.94,941.29,381.25,960,107
		S892.88-963.91,853-853"/>
	<path class="st0" d="M425.29,386.39c3.34,3.33,228.59,458.95,317.71,406.39C832.12,740.21,935.67,351.3,960,71
		s-31.5-1076.96-71-960"/>
	<path class="st0" d="M426.62,386.54c3.33,3.33,229.73,461.62,318.63,406.53S933.54,338.85,960,56s-16.87-1079.51-56-960"/>
	<path class="st0" d="M427.94,386.69c3.33,3.33,230.88,464.81,319.56,406.69C836.17,735.27,930.92,323.9,960,38s0.75-1082.56-38-960
		"/>
	<path class="st0" d="M429.26,386.84c3.33,3.34,232.03,469.65,320.48,406.85C838.2,730.88,926.62,300.61,960,10
		s28.38-1087.28-10-960"/>
	<path class="st0" d="M430.57,387c3.33,3.33,233.16,454.49,321.39,406.99C840.2,746.49,942.33,377.33,960,102S896.01-970,858-858"/>
	<path class="st0" d="M431.87,387.15c3.34,3.33,234.29,465.33,322.32,407.14C842.21,736.1,932.03,324.05,960,38
		s-0.36-1082.72-38-960"/>
	<path class="st0" d="M433.17,387.29c3.33,3.34,235.41,462.35,323.21,407.3C844.19,739.54,935.56,339.93,960,57
		s-19.73-1079.6-57-960"/>
	<path class="st0" d="M434.46,387.44c3.33,3.33,236.53,459.18,324.12,407.44S939.26,356.65,960,77s-40.1-1076.31-77-960"/>
	<path class="st0" d="M435.74,387.59c3.33,3.33,237.64,471.85,325.01,407.58C848.13,730.91,927.13,294.2,960,2s34.54-1088.86-2-960"
		/>
	<path class="st0" d="M437.02,387.73c3.33,3.33,238.74,468.85,325.91,407.73C850.09,734.34,930.65,310.08,960,21
		s15.18-1085.74-21-960"/>
	<path class="st0" d="M438.29,387.87c3.34,3.34,239.86,460.02,326.81,407.88C852.05,743.6,940.02,355.12,960,75
		s-39.18-1076.79-75-960"/>
	<path class="st0" d="M439.56,388.01c3.33,3.34,240.95,469.36,327.69,408.02S931.21,309.34,960,20s15.46-1086-20-960"/>
	<path class="st0" d="M440.81,388.15c3.33,3.34,242.03,468.85,328.56,408.16C855.91,735.62,932.23,312.72,960,24
		s11.1-1085.38-24-960"/>
	<path class="st0" d="M442.05,388.29c3.33,3.34,243.1,458.18,329.43,408.3C857.81,746.7,943.41,366.93,960,89s-54.25-1074.6-89-960"
		/>
	<path class="st0" d="M443.27,388.42c3.34,3.33,244.17,470.99,330.29,408.42C859.69,734.27,931.09,303.64,960,13
		s21.41-1087.31-13-960"/>
	<path class="st0" d="M444.5,388.55c3.33,3.33,245.23,455.97,331.15,408.54C861.57,749.67,946.61,379.52,960,104
		S890.06-968.18,856-856"/>
	<path class="st0" d="M445.71,388.67c3.34,3.33,246.29,457.12,332,408.67C863.43,748.9,945.95,374.56,960,98s-64.29-1073.22-98-960"
		/>
	<path class="st0" d="M446.93,388.79c3.33,3.34,247.33,457.1,332.85,408.8C865.29,749.29,946.46,375.43,960,99s-65.63-1073.1-99-960
		"/>
	<path class="st0" d="M448.13,388.92c3.33,3.33,248.38,469.4,333.69,408.91C867.13,737.35,934.64,314.64,960,26s7.03-1085.31-26-960
		"/>
	<path class="st0" d="M449.33,389.04c3.33,3.33,249.42,463.21,334.53,409.03C868.97,743.9,941.31,346.35,960,64
		s-31.31-1079.01-64-960"/>
	<path class="st0" d="M450.53,389.16c3.33,3.33,250.46,471.51,335.37,409.15S933.48,305.55,960,15s17.35-1087.22-15-960"/>
	<path class="st0" d="M451.72,389.27c3.33,3.34,251.49,458.99,336.2,409.28C872.64,748.84,946.49,368.92,960,91
		s-58.99-1074.59-91-960"/>
	<path class="st0" d="M452.91,389.4c3.33,3.34,251.85,467.97,337.03,409.4C875.12,740.24,941.32,325.47,964,38s-5.66-1087.47-38-964
		"/>
	<path class="st0" d="M454.1,389.53c3.33,3.33,253.55,467.28,337.86,409.53C876.28,741.3,939.16,329.01,960,43
		s-11.66-1082.68-43-960"/>
	<path class="st0" d="M455.27,389.66c3.34,3.34,253.74,457.78,338.69,409.67C878.92,751.21,953.33,378.22,965,101
		S895.84-977.05,864-864"/>
	<path class="st0" d="M456.45,389.8c3.33,3.33,255.59,463.76,339.51,409.79C879.89,745.63,943.66,348.27,960,66
		s-35.33-1078.93-66-960"/>
	<path class="st0" d="M457.64,389.93c3.33,3.33,256.62,465.25,340.34,409.93C881.71,744.53,942.66,341.64,960,58
		s-27.66-1080.31-58-960"/>
	<path class="st0" d="M458.83,390.07c3.33,3.33,257.65,460.91,341.17,410.07C883.53,749.29,947.5,364.19,960,85s-55-1075.86-85-960"
		/>
	<path class="st0" d="M460.01,390.22c3.34,3.33,258.68,464.59,342.01,410.22C885.36,746.07,944.34,346.74,960,64
		s-34.34-1079.41-64-960"/>
	<path class="st0" d="M461.2,390.37c3.34,3.33,259.71,470.92,342.84,410.36C887.18,740.17,938.51,315.96,960,27s2.33-1085.62-27-960
		"/>
	<path class="st0" d="M462.39,390.51c3.33,3.34,260.74,470.93,343.67,410.51C889,740.61,939.01,316.84,960,28s0.99-1085.5-28-960"/>
	<path class="st0" d="M463.58,390.67c3.33,3.33,261.77,475.44,344.5,410.66C890.82,736.56,935.01,295.22,960,2s26.65-1089.89-2-960"
		/>
	<path class="st0" d="M464.77,390.82c3.33,3.33,262.79,460.79,345.33,410.82S950.18,369.44,960,91s-62.68-1075.11-91-960"/>
	<path class="st0" d="M465.98,390.97c3.33,3.34,263.84,468.97,346.18,410.97C894.5,743.95,942.53,329.49,960,43
		s-15.03-1083.16-43-960"/>
	<path class="st0" d="M467.2,391.12c3.33,3.34,264.91,469.15,347.04,411.13C896.37,744.22,942.87,329.54,960,43
		s-15.37-1083.21-43-960"/>
	<path class="st0" d="M468.42,391.28c3.34,3.33,265.97,471.33,347.9,411.28C898.25,742.52,941.22,319.59,960,31
		s-3.72-1085.26-31-960"/>
	<path class="st0" d="M469.64,391.44c3.34,3.33,267.03,470.84,348.75,411.44C900.12,743.47,942.23,322.98,960,35
		s-8.07-1084.65-35-960"/>
	<path class="st0" d="M470.85,391.59c3.34,3.34,268.08,472.36,349.6,411.6C901.97,742.42,941.24,316.36,960,27s-0.41-1086.03-27-960
		"/>
	<path class="st0" d="M472.05,391.75c3.33,3.33,269.11,476.7,350.44,411.75C903.81,738.54,937.41,295.58,960,2s24.25-1090.25-2-960"
		/>
	<path class="st0" d="M473.24,391.9c3.33,3.33,270.13,467.38,351.26,411.9C905.63,748.32,947.25,343.13,960,59s-33.08-1080.8-59-960
		"/>
	<path class="st0" d="M474.41,392.05c3.33,3.34,271.15,463.9,352.09,412.05C907.43,752.26,951.25,361.52,960,81
		s-55.42-1077.18-81-960"/>
	<path class="st0" d="M475.57,392.2c3.33,3.33,272.16,477.57,352.9,412.2C909.21,739.04,938.08,294.07,960,0s25.25-1090.73,0-960"/>
	<path class="st0" d="M476.72,392.35c3.33,3.33,273.16,467.07,353.71,412.35C910.97,749.97,949.07,347.45,960,64
		s-39.07-1080.12-64-960"/>
	<path class="st0" d="M477.87,392.49c3.34,3.33,274.16,468.4,354.51,412.48C912.74,749.06,948.23,341.66,960,57
		s-32.4-1081.33-57-960"/>
	<path class="st0" d="M479.05,392.61c3.33,3.33,275.17,465.21,355.33,412.61C914.54,752.62,951.9,358.37,960,77
		s-52.73-1078.04-77-960"/>
	<path class="st0" d="M480.22,392.72c3.33,3.34,276.19,463.02,356.15,412.73C916.34,755.16,954.56,370.07,960,91
		s-67.06-1075.74-91-960"/>
	<path class="st0" d="M481.41,392.82c3.33,3.33,277.21,470.78,356.98,412.81C918.16,747.67,947.23,331.77,960,45
		s-21.4-1083.44-45-960"/>
	<path class="st0" d="M482.6,392.9c3.34,3.33,278.26,478.22,357.83,412.9C919.99,740.48,940.24,295.13,960,1s22.26-1090.8-1-960"/>
	<path class="st0" d="M483.81,392.97c3.34,3.33,279.31,468.3,358.67,412.97C921.85,750.61,950.58,345.16,960,61
		s-38.08-1080.82-61-960"/>
	<path class="st0" d="M485.05,393.02c3.33,3.33,280.37,462.69,359.53,413.02C923.74,756.37,956.6,373.51,960,95
		s-72.43-1075.17-95-960"/>
	<path class="st0" d="M486.31,393.05c3.34,3.33,281.47,475.39,360.42,413.05S944.29,310.18,960,19s3.21-1087.85-19-960"/>
	<path class="st0" d="M487.64,393.05c3.33,3.33,282.62,469.22,361.34,413.05C927.71,749.92,950.83,341.02,960,56
		s-34.16-1081.68-56-960"/>
	<path class="st0" d="M488.99,393c3.33,3.33,283.78,465,362.28,413C929.78,754,955.38,361.83,960,81s-59.55-1077.5-81-960"/>
	<path class="st0" d="M490.35,392.93c3.34,3.33,284.98,462.75,363.25,412.93C931.88,756.04,957.93,372.64,960,94
		s-72.93-1075.31-94-960"/>
	<path class="st0" d="M491.76,392.82c3.33,3.33,286.19,461.79,364.23,412.82S959.16,376.77,960,99s-78.33-1074.44-99-960"/>
	<path class="st0" d="M493.22,392.66c3.33,3.34,287.45,465.44,365.25,412.66C936.26,752.55,955.74,357.55,960,76
		s-55.74-1078.22-76-960"/>
	<path class="st0" d="M494.73,392.44c3.33,3.33,288.77,464.17,366.31,412.43C938.59,753.13,957.17,362.48,960,82
		s-62.17-1077.15-82-960"/>
	<path class="st0" d="M496.29,392.14c3.33,3.33,290.12,460.67,367.4,412.14C940.98,755.76,960.78,378.21,960,101
		S878.38-972.88,859-859"/>
	<path class="st0" d="M497.95,391.74c3.33,3.33,291.56,461.2,368.56,411.74C943.52,754.02,960.25,373.08,960,95
		s-76.09-1074.75-95-960"/>
	<path class="st0" d="M499.71,391.25c3.33,3.34,293.08,476.13,369.8,411.25C946.22,737.63,945.25,295.42,960,2s16.42-1090.08-2-960"
		/>
	<path class="st0" d="M501.58,390.69c3.34,3.33,294.71,462.97,371.11,410.69C949.1,749.1,958.28,357.73,960,77s-59.12-1077.4-77-960
		"/>
</g>
</svg>
